<svg width="24" height="24" viewBox="0 0 24 24" fill="none" xmlns="http://www.w3.org/2000/svg">
<path d="M10.3008 13H5.30078V11H10.3008V13Z" fill="white"/>
<path fill-rule="evenodd" clip-rule="evenodd" d="M10.2452 22C12.3008 22 13.3008 17.5 13.3008 12C13.3008 3 7.80078 2 7.80078 2C7.80078 2 2.30073 3.33574 2.30078 12C2.30078 17.5228 3.26743 22 5.96749 22H10.2452ZM5.96025 20.0001L5.96749 20H9.99804C10.1669 19.7729 10.398 19.3095 10.6178 18.5238C11.0555 16.9588 11.3008 14.6622 11.3008 12C11.3008 7.94024 10.0772 5.97984 9.13657 5.03921C8.65279 4.55543 8.18209 4.27867 7.85022 4.1257L7.84355 4.12906C7.49314 4.30616 6.99503 4.61921 6.48607 5.14371C5.50993 6.14963 4.30076 8.13266 4.30078 12C4.30078 14.691 4.54161 16.9466 5.02644 18.4614C5.26899 19.2193 5.52739 19.6449 5.72044 19.8526C5.85859 20.0012 5.91666 20.0005 5.96025 20.0001Z" fill="white"/>
<path fill-rule="evenodd" clip-rule="evenodd" d="M14.3008 4H16.3008V14.6409C16.0456 14.8341 15.8304 15.0963 15.6838 15.4261L14.0119 19.1878C13.4241 20.5104 14.3922 22.0001 15.8395 22.0001H19.6013C21.1262 22.0001 22.0902 20.3618 21.3496 19.0288L19.2597 15.267C19.0274 14.8489 18.6855 14.5598 18.3008 14.3969V2H14.3008V4ZM15.8395 20.0001L17.5114 16.2383L19.6013 20.0001L15.8395 20.0001Z" fill="white"/>
</svg>
