<svg width="24" height="24" viewBox="0 0 24 24" fill="none" xmlns="http://www.w3.org/2000/svg">
<path fill-rule="evenodd" clip-rule="evenodd" d="M20 15V3H22V15C22 17.7614 19.7614 20 17 20H12.5002C12.0441 20.6072 11.3179 21 10.5 21C9.11929 21 8 19.8807 8 18.5C8 17.1193 9.11929 16 10.5 16C11.7095 16 12.7184 16.8589 12.95 18H17C18.6569 18 20 16.6569 20 15ZM10.5 19C10.7761 19 11 18.7761 11 18.5C11 18.2239 10.7761 18 10.5 18C10.2239 18 10 18.2239 10 18.5C10 18.7761 10.2239 19 10.5 19Z" fill="white"/>
<path fill-rule="evenodd" clip-rule="evenodd" d="M5 5C3.34315 5 2 6.34315 2 8V12C2 13.6569 3.34315 15 5 15H7.09524C8.68359 15 9.97419 13.7252 9.99962 12.1429H11.0004C11.0258 13.7252 12.3164 15 13.9048 15H16C17.6569 15 19 13.6569 19 12V8C19 6.34315 17.6569 5 16 5H5ZM4 8C4 7.44772 4.44772 7 5 7H16C16.5523 7 17 7.44772 17 8V12C17 12.5523 16.5523 13 16 13H13.9048C13.4051 13 13 12.5949 13 12.0952C13 11.017 12.1259 10.1429 11.0476 10.1429H9.95238C8.87411 10.1429 8 11.017 8 12.0952C8 12.5949 7.59492 13 7.09524 13H5C4.44772 13 4 12.5523 4 12V8Z" fill="white"/>
</svg>
