<svg width="24" height="24" viewBox="0 0 24 24" fill="none" xmlns="http://www.w3.org/2000/svg">
<path fill-rule="evenodd" clip-rule="evenodd" d="M6.23867 9.83559L9.26863 7.62909C9.60877 7.37954 10.0225 7.2514 10.4437 7.26513C10.9576 7.27798 11.4546 7.45101 11.8658 7.76016C12.2771 8.06931 12.582 8.49923 12.7382 8.99014C12.914 9.54271 13.0748 9.91615 13.2203 10.1105C13.6602 10.6989 14.2309 11.1764 14.887 11.5051C15.3151 11.7196 15.772 11.8669 16.2416 11.9432L20.06 6.90482L21.6539 8.11281L14.9188 17H17.5789C17.6571 17 17.7338 17.0259 17.8003 17.0747C17.8668 17.1235 17.9206 17.1933 17.9555 17.2764C17.9905 17.3594 18.0053 17.4524 17.9983 17.5449C17.9913 17.6374 17.9627 17.7257 17.9158 17.8L16.1474 20.6C16.0689 20.7242 15.9672 20.825 15.8503 20.8944C15.7334 20.9639 15.6044 21 15.4737 21H4.52632C4.39558 21 4.26665 20.9639 4.14971 20.8944C4.03278 20.825 3.93107 20.7242 3.85263 20.6L2.08421 17.8C2.03729 17.7257 2.00872 17.6374 2.0017 17.5449C1.99468 17.4524 2.00948 17.3594 2.04445 17.2764C2.07942 17.1933 2.13318 17.1235 2.19969 17.0747C2.26621 17.0259 2.34286 17 2.42105 17H10.3897L8.37335 15.3035C8.11035 15.0906 7.90909 14.8108 7.79054 14.4935C7.67199 14.1761 7.64048 13.8326 7.69929 13.4989L8.1805 10.7644L7.54047 11.2308L5.52963 14.0059L4 12.8913L6.2226 9.82421L6.23867 9.83559ZM12.7687 16.5258L14.9941 13.5893C14.7154 13.5006 14.4421 13.3932 14.1762 13.2675C13.2932 12.85 12.5134 12.2415 11.893 11.4857L11.2341 15.2343L12.7687 16.5258Z" fill="white"/>
<path d="M11.8004 6.79123C11.2989 6.79123 10.818 6.59151 10.4634 6.23602C10.1088 5.88052 9.90961 5.39836 9.90961 4.89561C9.90961 4.39287 10.1088 3.91071 10.4634 3.55521C10.818 3.19972 11.2989 3 11.8004 3C12.3018 3 12.7828 3.19972 13.1374 3.55521C13.4919 3.91071 13.6912 4.39287 13.6912 4.89561C13.6912 5.39836 13.4919 5.88052 13.1374 6.23602C12.7828 6.59151 12.3018 6.79123 11.8004 6.79123Z" fill="white"/>
</svg>
