<svg width="24" height="24" viewBox="0 0 24 24" fill="none" xmlns="http://www.w3.org/2000/svg">
<path fill-rule="evenodd" clip-rule="evenodd" d="M14.9478 10.3621C15.464 11.5987 16.8849 12.1827 18.1215 11.6665C19.3581 11.1503 19.9421 9.72936 19.4259 8.49278C18.9097 7.2562 17.4888 6.67221 16.2522 7.1884C15.0156 7.7046 14.4316 9.12551 14.9478 10.3621ZM13.1021 11.1325C13.1192 11.1734 13.1368 11.2139 13.1549 11.254C12.9186 11.2419 12.6808 11.2717 12.4534 11.3429L9.18613 7.55423C8.62391 6.90232 7.70762 6.6833 6.91137 7.0105L3.4086 8.44991L4.16879 10.2998L7.67155 8.8604L10.8867 12.5886L8.04157 15.4338L8 15.3968C6.90107 16.3826 5.47626 16.9269 4 16.9248H2V18.9248H4C5.40436 18.9271 6.78435 18.558 8 17.8548C9.21565 18.558 10.5956 18.9271 12 18.9248C13.4044 18.9271 14.7843 18.558 16 17.8548C17.2157 18.558 18.5956 18.9271 20 18.9248H22V16.9248H20C18.8401 16.9264 17.712 16.5908 16.7488 15.9688C17.1447 15.3048 17.1194 14.4648 16.6874 13.8262C17.4132 13.9093 18.1698 13.8136 18.8919 13.5121C21.1478 12.5704 22.2132 9.97824 21.2715 7.72234C20.3298 5.46643 17.7376 4.40106 15.4817 5.34276C13.2258 6.28445 12.1604 8.87663 13.1021 11.1325ZM13.1631 16.8122L15.0294 14.9459L13.0524 13.2514L9.79657 16.5072C10.4924 16.7819 11.2393 16.9259 12 16.9248C12.3931 16.9254 12.7825 16.8872 13.1631 16.8122Z" fill="#141414"/>
</svg>
