<svg width="24" height="24" viewBox="0 0 24 24" fill="none" xmlns="http://www.w3.org/2000/svg">
<path fill-rule="evenodd" clip-rule="evenodd" d="M10.8944 10.7447C11.5696 9.39423 11.9493 7.11681 10.9014 5.31894C9.76144 3.36305 7.27571 2.48064 3.29392 3.31892L3.70594 5.27602C7.32415 4.51429 8.67176 5.46524 9.17347 6.32604C9.48287 6.85691 9.58481 7.52455 9.54196 8.18134C9.48975 8.15053 9.43641 8.12163 9.38193 8.09471C8.67323 7.74459 7.941 7.81272 7.3313 8.08369C6.19834 8.58721 5.34324 9.82609 5.03501 11.0342C3.94841 14.7485 4.89235 17.4239 6.67175 19.1836C8.38088 20.8737 10.7455 21.6088 12.3895 21.7914L12.4445 21.7975H21.4999V19.7975H19.1198L19.3215 18.7892C19.507 17.8618 19.0175 16.9312 18.1482 16.5587L16.0984 15.6802L16.2472 14.6384L20.344 15.2852L20.6559 13.3097L11.1559 11.8097L10.844 13.7852L14.2714 14.3264L14.1185 15.3973C14.0777 15.6829 14.0996 15.9658 14.1754 16.2303L11.6264 19.6289C10.4352 19.3424 9.07818 18.7505 8.07804 17.7615C6.86045 16.5574 6.05457 14.6556 6.95926 11.5797L6.96506 11.56L6.97004 11.5401C7.1664 10.7547 7.70801 10.1049 8.14356 9.91132C8.32136 9.8323 8.42038 9.85044 8.49606 9.88783C8.5997 9.93902 8.83532 10.1187 9.08079 10.6914L9.93012 12.6732L10.8944 10.7447ZM15.6122 17.6478L13.9999 19.7975H17.0802L17.3603 18.3969L15.6122 17.6478Z" fill="white"/>
<path d="M7 5.99998C6.40025 5.90003 5.60489 5.94078 4.7257 6.18675C3.83094 6.43707 2.81953 7.22186 2.5 8.5L4.44028 8.98507C4.52075 8.66321 5 8.1868 5.26454 8.11279C5.78535 7.96709 6.27096 7.90606 6.6712 7.97277L7 5.99998Z" fill="white"/>
<path fill-rule="evenodd" clip-rule="evenodd" d="M17 11.7975C18.6568 11.7975 20 10.4543 20 8.79749C20 7.14063 18.6568 5.79749 17 5.79749C15.3431 5.79749 14 7.14063 14 8.79749C14 10.4543 15.3431 11.7975 17 11.7975ZM17 9.79749C17.5523 9.79749 18 9.34977 18 8.79749C18 8.2452 17.5523 7.79749 17 7.79749C16.4477 7.79749 16 8.2452 16 8.79749C16 9.34977 16.4477 9.79749 17 9.79749Z" fill="white"/>
</svg>
