<svg width="550" height="420" viewBox="0 0 550 420" fill="none" xmlns="http://www.w3.org/2000/svg">
<path d="M70.5649 92.0458L129.423 72.5977C130.836 72.1324 132.124 71.3484 133.186 70.3062C134.249 69.264 135.058 67.9916 135.551 66.5869C136.045 65.1823 136.209 63.6831 136.031 62.2049C135.854 60.7268 135.339 59.3092 134.527 58.0615V58.0615C129.457 50.2832 137.132 40.4983 145.886 43.5819L448.97 150.212C470.642 157.838 473.32 187.419 453.367 198.815C452.681 199.207 452.12 199.786 451.749 200.484C451.378 201.182 451.212 201.97 451.269 202.758C451.327 203.547 451.606 204.303 452.075 204.939C452.543 205.575 453.182 206.066 453.918 206.354L496.199 222.897C513.813 229.794 516.309 253.702 500.505 264.091L483.29 275.404C482.534 275.893 481.931 276.585 481.551 277.401C481.171 278.218 481.029 279.125 481.142 280.018C481.255 280.912 481.618 281.755 482.189 282.451C482.761 283.147 483.517 283.667 484.371 283.951C504.229 290.74 507.91 317.249 490.652 329.197L445.48 360.467C432.681 369.328 417.967 375.031 402.542 377.111C387.117 379.19 371.42 377.587 356.733 372.432L101.357 282.801C85.4877 277.233 85.1448 254.901 100.836 248.847L114.943 243.401C123.107 240.252 123.268 228.751 115.194 225.368L62.3656 203.219C48.1243 197.251 48.6885 176.874 63.2337 171.71L100.458 158.49C108.74 155.55 109.174 143.993 101.14 140.44L68.9025 126.204C53.5717 119.42 54.6481 97.3052 70.5649 92.0458Z" fill="#C4CCFB"/>
<path d="M152.606 200.027L100.714 180.279C97.6175 179.167 94.3463 178.622 91.0566 178.668V178.668C84.6239 178.668 78.2606 180.448 74.0416 183.445C70.669 185.829 69.0109 188.722 69.3712 191.597C69.7488 194.585 72.2316 197.095 76.3682 198.667L128.259 218.42C131.357 219.527 134.628 220.071 137.917 220.026C144.35 220.026 150.713 218.25 154.932 215.249C158.309 212.869 159.967 209.972 159.603 207.102C159.225 204.114 156.742 201.599 152.606 200.027ZM154.433 214.541C150.223 217.516 143.929 219.14 137.939 219.14C134.743 219.191 131.565 218.665 128.555 217.59L76.6764 197.842C68.9458 194.898 67.9952 188.765 74.5408 184.14C78.7555 181.165 85.0449 179.536 91.0566 179.536C94.2405 179.493 97.4066 180.018 100.406 181.087L152.297 200.839C160.028 203.779 160.983 209.916 154.433 214.541Z" fill="white"/>
<path d="M259.7 191.206C259.483 189.499 258.103 188.079 255.794 187.206L228.917 176.978C227.267 176.382 225.523 176.088 223.769 176.11V176.11C220.353 176.11 216.967 177.061 214.715 178.655C212.835 179.979 211.915 181.621 212.11 183.267C212.306 184.913 213.708 186.398 216.017 187.271L242.893 197.499C244.544 198.095 246.287 198.389 248.041 198.368C251.457 198.368 254.843 197.421 257.096 195.827C258.984 194.494 259.908 192.856 259.7 191.206ZM256.605 195.115C254.435 196.652 251.166 197.495 248.05 197.495C246.402 197.52 244.762 197.248 243.21 196.691L216.334 186.463C212.332 184.939 211.837 181.764 215.227 179.367C217.397 177.825 220.67 176.982 223.782 176.982C225.43 176.96 227.069 177.232 228.622 177.786L255.498 188.018C259.505 189.538 260 192.717 256.601 195.115H256.605Z" fill="white"/>
<path d="M220.9 117.405C226.512 117.405 232.063 115.85 235.749 113.249C238.713 111.155 240.172 108.602 239.85 106.061C239.516 103.425 237.333 101.21 233.7 99.8245L188.628 82.6695C185.926 81.7046 183.075 81.2295 180.207 81.2667V81.2667C174.595 81.2667 169.043 82.8215 165.358 85.423C162.393 87.5163 160.935 90.07 161.256 92.6063C161.59 95.2469 163.774 97.4619 167.407 98.8473L212.479 116.002C215.18 116.967 218.032 117.442 220.9 117.405V117.405ZM165.853 86.1352C169.512 83.5511 174.968 82.1396 180.198 82.1396C182.962 82.0998 185.711 82.5558 188.315 83.486L233.392 100.624C240.106 103.182 240.936 108.511 235.245 112.528C231.586 115.112 226.13 116.523 220.921 116.523C218.157 116.563 215.408 116.107 212.804 115.177L167.706 98.0178C160.991 95.4771 160.162 90.1482 165.853 86.1309V86.1352Z" fill="white"/>
<path d="M158.604 115.824C137.236 89.4404 109.829 68.3115 94.6982 62.2226C91.7206 61.0239 90.4314 62.1487 91.6902 65.1063C91.6902 65.1063 104.651 87.7292 114.357 105.983C103.01 105.366 95.1713 107.069 94.0428 111.121C92.0505 118.256 111.648 129.974 137.817 137.292C163.986 144.61 186.818 144.749 188.814 137.609C190.438 131.772 177.633 122.877 158.604 115.824Z" fill="#3B54F3"/>
<path d="M397.325 141.908C376.89 115.216 349.08 93.4445 334.092 87.4163C331.301 86.2958 330.095 87.3468 331.275 90.1177C331.275 90.1177 343.529 111.511 352.631 128.649C339.835 126.226 331.158 126.33 330.003 129.518C327.881 135.39 351.936 149.47 383.722 160.961C415.508 172.453 443.005 177.031 445.123 171.133C447.111 165.643 426.125 152.94 397.325 141.908Z" fill="#3B54F3"/>
<path d="M449.755 237.79C433.157 217.065 411.636 200.405 399.804 195.662C397.503 194.737 396.509 195.606 397.477 197.89C397.477 197.89 405.868 212.531 413.038 225.825C401.319 223.219 393.106 222.963 392.125 225.682C390.532 230.094 408.62 240.674 432.493 249.308C456.366 257.942 477.04 261.368 478.633 256.951C479.939 253.264 467.655 245.325 449.755 237.79Z" fill="#3B54F3"/>
<path d="M426.316 279.222L244.547 212.774C217.462 202.876 177.164 208.17 154.546 224.596C131.927 241.021 135.538 262.358 162.619 272.252L259.144 307.535C262.382 308.716 262.343 311.904 259.057 312.95L235.766 321.089C231.208 322.679 234.642 326.779 239.468 326.826L318.293 330.301C320.457 330.326 322.601 330.718 324.634 331.46L344.384 338.679C371.469 348.576 411.766 343.286 434.385 326.857C457.004 310.453 453.392 289.111 426.316 279.222Z" fill="#3B54F3"/>
<path d="M435.974 275.891L254.2 209.443C227.119 199.553 186.822 204.856 164.199 221.273C141.58 237.698 145.196 259.057 172.272 268.929L268.797 304.212C272.035 305.398 271.996 308.581 268.711 309.628L245.428 317.775C240.87 319.365 244.299 323.465 249.126 323.512L327.95 327.013C330.115 327.034 332.259 327.425 334.292 328.168L354.046 335.386C381.126 345.284 421.424 339.994 444.047 323.564C466.683 307.122 463.05 285.789 435.974 275.891Z" fill="#FAD054"/>
<path d="M284.162 175.003C284.162 175.003 267.234 195.302 250.705 216.496C242.506 227.006 241.256 243.423 250.97 249.981C260.255 256.27 272.586 261.303 285.213 246.654C299.485 230.099 325.328 192.57 325.328 192.57L284.162 175.003Z" fill="#3B54F3"/>
<path d="M324.413 166.716L313.909 169.052L286.919 188.54C281.647 192.346 277.816 197.825 276.05 204.085C274.284 210.346 274.686 217.02 277.192 223.023L296.486 269.255C297.237 271.027 297.354 272.881 295.813 274.032C291.906 276.99 291.038 277.741 288.173 279.965C285.869 281.75 285.973 287.027 292.397 286.814C293.152 289.133 296.347 289.255 298.296 288.586C298.795 289.632 300.9 291.283 303.739 289.815C304.303 290.953 306.951 292.447 309.854 290.775C310.675 292.89 315.775 293.684 321.27 290.366C325.177 288.021 334.869 282.857 340.577 279.852C343.068 278.549 343.65 275.57 342.621 272.951L323.045 220.491C322.99 220.344 322.985 220.183 323.031 220.033C323.078 219.882 323.173 219.752 323.302 219.662L343.759 205.1L324.413 166.716Z" fill="#EC8C92"/>
<path d="M343.759 205.091L324.413 166.716L313.909 169.052L286.919 188.54C281.647 192.346 277.816 197.825 276.05 204.085C274.284 210.346 274.686 217.02 277.192 223.023C280.664 231.314 297.545 236.973 308.878 229.716C317.845 223.966 343.759 205.091 343.759 205.091Z" fill="#74BAAB"/>
<path d="M380.974 229.842C382.42 229.59 382.854 225.421 379.112 223.097C378.587 222.772 371.733 218.433 368.335 216.557C367.823 216.278 367.377 215.892 367.026 215.426C366.676 214.96 366.429 214.425 366.303 213.855L358.824 179.806C357.92 175.719 356.199 171.857 353.763 168.453C347.925 160.288 335.776 144.458 320.901 131.538C319.901 130.672 318.841 129.88 317.728 129.166C310.058 124.233 301.82 120.802 294.085 118.413C295.561 116.524 296.281 113.431 296.281 109.805V96.1939C298.862 95.4261 301.079 93.7535 302.527 91.4827C303.976 89.212 304.557 86.4951 304.166 83.83C303.775 81.1649 302.437 78.7302 300.397 76.972C298.357 75.2139 295.753 74.2501 293.061 74.2573C292.861 74.2573 292.661 74.2573 292.466 74.2573C291.476 73.7187 290.372 73.4212 289.245 73.3887L286.207 73.3105C284.214 73.2653 282.232 73.6195 280.378 74.3524C278.524 75.0852 276.835 76.1818 275.411 77.5776C273.987 78.9735 272.856 80.6403 272.085 82.4799C271.315 84.3196 270.92 86.2949 270.924 88.2896V96.4979H270.516C269.382 96.4979 268.295 96.9487 267.493 97.7509C266.691 98.5532 266.241 99.6413 266.241 100.776V102.487C266.24 103.672 266.57 104.835 267.191 105.844C267.813 106.853 268.702 107.67 269.761 108.202C270.105 108.368 270.396 108.627 270.602 108.949C270.807 109.271 270.919 109.644 270.924 110.026V114.522C262.71 114.786 254.677 117 247.485 120.98L207.044 142.916C206.331 143.303 205.588 143.632 204.822 143.898C197.751 146.343 160.266 159.333 154.515 161.539C148.764 163.745 148.872 166.59 149.584 168.71C146.337 170.421 146.845 175.437 148.946 175.975C147.396 183.793 155.574 182.703 155.574 182.703C155.574 182.703 156.351 185.83 160.244 186.229C166.573 186.876 169.403 184.127 178.197 180.479C176.278 183.498 177.077 188.101 179.69 189.031C183.757 190.473 188.931 183.28 193.393 181.244C195.893 180.101 218.256 172.097 220.27 171.207C224.302 169.426 237.758 161.678 252.155 155.138C257.325 161.765 262.048 168.002 266.957 169.509C269.752 172.875 275.751 185.226 275.751 185.226L287.127 188.813L312.55 170.573C312.55 170.573 322.125 179.858 329.087 189.408C332.091 195.154 339.14 222.902 341.276 232.266C341.427 232.927 341.359 233.619 341.08 234.237C339.457 237.816 337.282 243.861 341.77 244.943C346.111 245.99 350.161 242.871 351.988 240.6C352.969 239.371 354.037 239.028 355.434 239.731C356.958 240.522 359.054 241.625 361.476 242.954C368.881 247.014 373.248 244.691 373.947 242.88C378.591 244.387 382.302 240.496 380.275 237.377C383.583 236.995 383.639 232.144 380.974 229.842Z" fill="#EC8C92"/>
<path d="M320.901 131.542C319.901 130.677 318.841 129.884 317.728 129.171C310.058 124.237 301.82 120.806 294.085 118.417C295.561 116.528 296.282 113.436 296.282 109.809V96.1939C298.862 95.4261 301.079 93.7535 302.528 91.4827C303.976 89.212 304.557 86.4951 304.166 83.83C303.775 81.1649 302.437 78.7302 300.397 76.972C298.358 75.2139 295.753 74.2501 293.061 74.2573C292.861 74.2573 292.662 74.2573 292.466 74.2573C291.476 73.7187 290.372 73.4212 289.246 73.3887L286.207 73.3105C284.214 73.2653 282.232 73.6195 280.378 74.3524C278.524 75.0852 276.835 76.1818 275.411 77.5776C273.987 78.9735 272.856 80.6403 272.086 82.4799C271.315 84.3196 270.92 86.2949 270.924 88.2896V96.4979H270.516C269.382 96.4979 268.295 96.9487 267.493 97.7509C266.691 98.5532 266.241 99.6413 266.241 100.776V102.487C266.241 103.672 266.57 104.835 267.191 105.844C267.813 106.853 268.702 107.67 269.761 108.202C270.105 108.368 270.396 108.627 270.602 108.949C270.807 109.271 270.919 109.644 270.924 110.026V114.522H270.79C265.932 114.708 261.299 116.618 257.72 119.91C254.141 123.202 251.85 127.661 251.257 132.489C250.981 134.527 250.924 136.588 251.088 138.638C254.356 170.021 294.654 175.949 296.828 160.202C296.882 159.749 297.033 159.314 297.272 158.927C297.511 158.54 297.832 158.209 298.212 157.959C298.592 157.709 299.022 157.544 299.472 157.478C299.922 157.411 300.381 157.444 300.817 157.574C321.036 163.832 348.056 163.554 344.344 156.15C338.124 148.484 330.029 139.464 320.901 131.542Z" fill="#F2BDBA"/>
<path d="M296.281 96.1939C298.862 95.4261 301.079 93.7535 302.527 91.4827C303.975 89.212 304.557 86.4951 304.166 83.83C303.775 81.1649 302.437 78.7302 300.397 76.972C298.357 75.2139 295.753 74.2501 293.061 74.2573C292.861 74.2573 292.661 74.2573 292.466 74.2573C291.475 73.7187 290.372 73.4212 289.245 73.3887L286.207 73.3105C284.214 73.2653 282.232 73.6195 280.378 74.3524C278.524 75.0852 276.835 76.1818 275.411 77.5776C273.987 78.9735 272.856 80.6403 272.085 82.4799C271.315 84.3196 270.92 86.2949 270.924 88.2896V96.4979C272.495 96.9322 273.059 98.2352 273.259 100.485C273.263 100.601 273.29 100.715 273.339 100.821C273.387 100.926 273.456 101.021 273.541 101.1C273.626 101.179 273.726 101.241 273.834 101.281C273.943 101.322 274.059 101.34 274.175 101.336C274.291 101.332 274.405 101.305 274.51 101.256C274.616 101.208 274.711 101.139 274.79 101.054C274.869 100.969 274.93 100.869 274.971 100.76C275.011 100.652 275.03 100.536 275.026 100.42C275.173 95.9333 274.47 88.5849 278.867 86.978C282.969 99.3209 296.281 96.1939 296.281 96.1939Z" fill="#FAD054"/>
<path d="M290.335 89.8396C286.211 89.8396 283.438 86.9298 283.438 82.5998C283.438 79.1558 285.816 75.8073 289.215 74.4609L289.536 75.2687C286.459 76.4891 284.327 79.5032 284.327 82.5998C284.327 86.4694 286.693 88.971 290.356 88.971C291.464 88.9924 292.537 88.579 293.344 87.8192C294.151 87.0595 294.629 86.0138 294.675 84.9059C294.71 84.3397 294.629 83.7722 294.437 83.2383C294.245 82.7044 293.947 82.2152 293.56 81.8007C293.262 81.4856 292.899 81.2392 292.497 81.0787C292.094 80.9182 291.661 80.8474 291.229 80.8713C289.623 80.9277 288.698 82.0395 288.733 83.0775C288.733 83.755 289.236 84.4716 290.504 84.4282L290.53 85.2968C288.737 85.3576 287.926 84.2371 287.865 83.1253C287.817 81.6617 289.05 80.0852 291.194 80.02C291.749 79.9925 292.303 80.0845 292.819 80.2898C293.335 80.4951 293.8 80.8089 294.185 81.21C294.867 81.9485 295.318 82.8706 295.483 83.8626C295.647 84.8546 295.518 85.8732 295.111 86.7926C294.704 87.7121 294.037 88.4922 293.192 89.0367C292.347 89.5812 291.361 89.8664 290.356 89.857L290.335 89.8396Z" fill="black"/>
<path d="M288.543 121.384C288.308 121.384 288.152 121.384 288.087 121.384H284.028C282.01 121.391 280.061 120.643 278.565 119.287C277.069 117.93 276.133 116.064 275.942 114.053C275.916 113.788 275.903 113.519 275.903 113.254H276.771C276.77 113.493 276.781 113.732 276.806 113.971C276.977 115.766 277.812 117.433 279.149 118.644C280.485 119.855 282.225 120.523 284.028 120.515H288.156C289.206 120.572 290.256 120.389 291.225 119.98C292.194 119.572 293.058 118.949 293.751 118.157L294.415 118.717C293.688 119.561 292.786 120.237 291.772 120.697C290.758 121.158 289.656 121.392 288.543 121.384V121.384Z" fill="black"/>
<path d="M271.363 114.53H270.495V124.367H271.363V114.53Z" fill="black"/>
<path d="M287.909 111.716L287.718 110.869L289.801 110.404L289.055 102.682L289.918 102.6L290.734 111.082L287.909 111.716Z" fill="black"/>
<path d="M288.412 114.999C286.98 114.999 284.284 114.708 283.972 112.567L284.84 112.441C285.139 114.491 289.18 114.1 289.215 114.096L289.302 114.965C289.245 114.956 288.903 114.999 288.412 114.999Z" fill="black"/>
<path d="M281.363 103.312L280.812 102.643C282.574 101.18 285.313 101.188 286.914 102.643L286.328 103.282C285.057 102.131 282.782 102.135 281.363 103.312Z" fill="black"/>
<path d="M291.672 103.308L291.112 102.648C291.7 102.129 292.458 101.842 293.243 101.842C294.028 101.842 294.786 102.129 295.374 102.648L294.801 103.3C293.299 101.979 291.759 103.256 291.672 103.308Z" fill="black"/>
<path d="M287.922 178.294C287.826 178.238 278.195 172.649 269.257 170.451L269.466 169.608C278.511 171.854 288.243 177.487 288.338 177.543L287.922 178.294Z" fill="black"/>
<path d="M277.974 143.847L277.107 143.899L278.596 168.536L279.463 168.483L277.974 143.847Z" fill="black"/>
<path d="M297.639 138.192L279.982 140.198L280.08 141.061L297.737 139.055L297.639 138.192Z" fill="black"/>
<path d="M274.683 139.98C271.531 137.27 259.161 129.557 259.057 129.47L259.517 128.731C260.025 129.053 272.061 136.549 275.264 139.324L274.683 139.98Z" fill="black"/>
<path d="M302.712 160.997L302.126 161.638L310.41 169.222L310.996 168.582L302.712 160.997Z" fill="black"/>
<path d="M370.38 223.088L369.938 223.836L379.26 229.343L379.702 228.595L370.38 223.088Z" fill="black"/>
<path d="M378.865 236.265C378.467 235.914 378.042 235.596 377.593 235.314L365.114 227.966L365.548 227.219L378.036 234.602C378.532 234.914 379.001 235.267 379.438 235.657L378.865 236.265Z" fill="black"/>
<path d="M373.617 241.798C373.64 241.406 373.554 241.016 373.368 240.67C373.183 240.324 372.905 240.037 372.567 239.839L360.687 232.543L361.121 231.805L373.022 239.11C373.481 239.387 373.856 239.783 374.11 240.255C374.365 240.727 374.488 241.258 374.468 241.794L373.617 241.798Z" fill="black"/>
<path d="M156.134 181.734L155.266 181.626L155.357 180.909C155.457 180.158 155.75 179.445 156.206 178.841C156.662 178.236 157.267 177.759 157.961 177.456L168.274 172.939L168.622 173.734L158.308 178.255C157.755 178.5 157.274 178.883 156.911 179.367C156.549 179.852 156.317 180.422 156.238 181.022L156.134 181.734Z" fill="black"/>
<path d="M149.914 175.185L149.163 174.75L149.241 174.616C149.816 173.413 150.814 172.465 152.045 171.954C155.518 170.373 163.535 167.367 163.617 167.337L163.921 168.149C163.838 168.179 155.83 171.189 152.405 172.744C150.943 173.413 150.543 174.103 149.992 175.054L149.914 175.185Z" fill="black"/>
<path d="M150.851 168.775L150.048 168.445C150.843 166.504 159.198 163.72 160.869 163.186L161.134 164.011C157.423 165.209 151.346 167.559 150.851 168.775Z" fill="black"/>
<path d="M180.003 179.298L179.438 178.637C181.282 177.129 183.255 175.784 185.333 174.62L185.767 175.38C183.738 176.52 181.809 177.83 180.003 179.298Z" fill="black"/>
<path d="M310.331 289.915H309.463V289.242C309.462 288.618 309.599 288.002 309.865 287.438C310.131 286.874 310.518 286.376 311 285.98L313.027 284.334L313.578 285.003L311.564 286.662C311.18 286.978 310.871 287.376 310.66 287.827C310.449 288.278 310.341 288.77 310.344 289.268L310.331 289.915Z" fill="black"/>
<path d="M304.077 288.339H303.209C303.21 287.602 303.365 286.874 303.664 286.2C303.963 285.527 304.399 284.924 304.945 284.43L307.272 282.341L307.849 282.988L305.523 285.077C305.067 285.489 304.703 285.992 304.454 286.554C304.205 287.116 304.076 287.724 304.077 288.339V288.339Z" fill="black"/>
<path d="M298.491 287.397H297.623C297.624 286.578 297.793 285.768 298.118 285.016C298.444 284.265 298.919 283.588 299.516 283.027L301.885 280.812L302.476 281.447L300.11 283.662C299.6 284.141 299.193 284.719 298.915 285.362C298.636 286.004 298.492 286.696 298.491 287.397V287.397Z" fill="black"/>
<path d="M292.626 285.485H291.758C291.758 284.703 291.926 283.929 292.25 283.218C292.574 282.506 293.048 281.872 293.638 281.359L296.433 278.936L297.002 279.591L294.211 282.015C293.713 282.445 293.314 282.978 293.041 283.577C292.767 284.176 292.626 284.827 292.626 285.485V285.485Z" fill="black"/>
</svg>
