<svg width="54" height="119" viewBox="0 0 54 119" fill="none" xmlns="http://www.w3.org/2000/svg">
<path d="M13.7084 8.62912C13.5413 8.62912 13.3741 8.52625 13.3098 8.35907C13.2198 8.14045 13.3226 7.88326 13.5413 7.79324C16.1004 6.71302 17.9264 6.05717 19.7654 5.96715C19.984 5.94143 20.2155 6.13433 20.2283 6.37866C20.2412 6.623 20.0612 6.82875 19.8168 6.84161C18.1065 6.93163 16.3447 7.5489 13.8885 8.6034C13.8242 8.61626 13.7727 8.62912 13.7084 8.62912Z" fill="#312F2D"/>
<path d="M32.5223 91.3059C31.6992 90.9201 31.1591 90.6115 30.7991 90.3414C29.706 89.5441 30.2204 89.094 29.4874 88.0524C28.8187 87.1265 25.3208 87.0364 24.2663 88.3481C24.1634 89.4284 23.8291 91.1001 23.9062 92.6304C23.9448 93.5178 25.8223 94.6366 26.5553 95.151C26.5811 95.1895 36.9846 104.68 40.5082 107.625C41.1255 108.139 42.0642 108.024 42.5143 107.355C42.6944 107.098 42.8744 106.841 43.093 106.609C44.2633 105.439 46.3594 106.017 47.7483 105.117C48.8928 104.371 49.3171 102.764 50.5517 102.172C51.4647 101.735 52.5835 101.825 53.4709 101.414C54.1138 101.131 54.1267 100.218 53.4966 99.8962C49.5872 97.9158 35.0556 92.489 32.5223 91.3059Z" fill="url(#paint0_linear_756_5941)"/>
<path d="M14.6343 99.0482L13.9013 96.0261C13.2326 95.1002 9.50329 94.8688 8.44879 96.1933C8.44879 96.1933 8.20446 100.231 8.20446 100.54C8.21732 100.823 7.63863 112.59 8.02442 116.923C8.1273 118.119 9.25896 118.994 10.4292 118.711C11.7152 118.402 13.0526 117.515 13.9528 117.348C15.5217 117.052 17.2063 117.875 18.698 117.335C19.161 117.168 19.5854 116.872 20.0483 116.73C20.8585 116.486 21.7329 116.795 22.5688 116.679C27.2755 116.049 14.9044 100.026 14.6343 99.0482Z" fill="url(#paint1_linear_756_5941)"/>
<path d="M6.59706 36.4824L6.3913 43.9282C6.35272 44.7513 6.86711 45.6 7.94733 46.2559C10.0692 47.5676 13.5671 47.6576 15.7661 46.4745C16.8463 45.8829 17.4121 45.0985 17.4507 44.2883L17.6565 36.8425L6.59706 36.4824Z" fill="url(#paint2_linear_756_5941)"/>
<path d="M15.9847 39.029C18.1838 37.8459 18.2352 35.8269 16.1133 34.5152C13.9915 33.2035 10.4936 33.1135 8.29459 34.2966C6.09557 35.4797 6.04413 37.4987 8.16599 38.8104C10.2879 40.1221 13.7857 40.2121 15.9847 39.029Z" fill="#45423E"/>
<path d="M17.1163 11.7128C18.0422 12.7287 18.0551 13.9504 18.068 14.349C18.0551 15.1206 17.5279 15.8922 16.5119 16.458C14.4287 17.6283 11.0722 17.564 9.00182 16.3294C7.94732 15.6993 7.43293 14.8892 7.44579 14.0918C7.78015 9.29515 14.5572 8.90935 17.1163 11.7128Z" fill="url(#paint3_radial_756_5941)"/>
<path d="M18.0679 14.349C18.0551 15.1206 17.5278 15.8922 16.5119 16.458C15.8946 16.8052 15.1745 17.0367 14.4029 17.1781C13.5284 17.3325 12.5897 17.3453 11.6895 17.2167C10.6993 17.0881 9.76052 16.7924 9.0018 16.3294C7.94729 15.6993 7.4329 14.8891 7.45862 14.0918L6.84135 36.3649C6.81563 37.1622 7.34288 37.9724 8.38453 38.6025C9.14325 39.0526 10.082 39.3484 11.0722 39.4899C11.9724 39.6056 12.9112 39.5927 13.7856 39.4513C14.5572 39.3227 15.2774 39.0783 15.8946 38.7311C16.9106 38.1524 17.4378 37.3937 17.4507 36.6221L18.0679 14.349Z" fill="url(#paint4_linear_756_5941)"/>
<path d="M14.0815 10.5304C14.7374 10.1703 14.7631 9.56594 14.1201 9.16728C13.4771 8.76863 12.4226 8.74291 11.7668 9.10298C11.1109 9.46306 11.0852 10.0675 11.7282 10.4661C12.3583 10.8648 13.4128 10.8905 14.0815 10.5304Z" fill="url(#paint5_linear_756_5941)"/>
<path d="M11.2523 9.77148L11.2138 11.3275C11.2009 11.5719 11.3552 11.829 11.6896 12.0348C12.3326 12.4335 13.3871 12.4592 14.0429 12.0991C14.3644 11.9191 14.5444 11.6876 14.5444 11.4433L14.583 9.88722C14.5702 10.1316 14.403 10.363 14.0815 10.5431C13.4256 10.9031 12.3583 10.8774 11.7281 10.4788C11.3938 10.273 11.2395 10.0158 11.2523 9.77148Z" fill="url(#paint6_linear_756_5941)"/>
<path d="M13.9913 5.9687C14.5315 5.67292 14.5443 5.17139 14.0171 4.8499C13.4898 4.5284 12.6153 4.50268 12.0752 4.79846C11.5351 5.09423 11.5223 5.59576 12.0495 5.91726C12.5768 6.23875 13.4512 6.26447 13.9913 5.9687Z" fill="#ECEEE7"/>
<path d="M11.6637 5.33789L11.548 9.67164C11.5351 9.87739 11.6637 10.0831 11.9338 10.2503C12.461 10.5718 13.3355 10.5975 13.8756 10.3018C14.1457 10.1603 14.2871 9.95455 14.2871 9.76166L14.4029 5.42791C14.39 5.63367 14.2486 5.82656 13.9914 5.96802C13.4512 6.26379 12.5768 6.23807 12.0495 5.91658C11.7795 5.7494 11.6509 5.54365 11.6637 5.33789Z" fill="url(#paint7_linear_756_5941)"/>
<path d="M11.1109 4.02539L11.0723 5.8772C11.0594 6.17297 11.2395 6.46875 11.6253 6.70022C12.3711 7.16318 13.6185 7.20176 14.3901 6.77738C14.7759 6.57163 14.9688 6.28871 14.9817 6.0058L15.0331 4.15399L11.1109 4.02539Z" fill="url(#paint8_linear_756_5941)"/>
<path d="M14.4287 4.92634C15.2003 4.50196 15.226 3.79468 14.4673 3.33172C13.7214 2.86877 12.474 2.83019 11.7024 3.25457C10.9308 3.67894 10.9051 4.38623 11.6638 4.84918C12.4226 5.31213 13.6571 5.35071 14.4287 4.92634Z" fill="#45423E"/>
<path d="M13.4128 4.31051C13.6057 4.20763 13.6185 4.0276 13.4256 3.91186C13.2328 3.79612 12.9241 3.78326 12.7312 3.899C12.5383 4.00188 12.5255 4.18192 12.7184 4.29765C12.9113 4.40053 13.2199 4.41339 13.4128 4.31051Z" fill="#CDCFC7"/>
<path d="M30.8121 48.828C31.7766 47.0534 31.3651 46.2432 30.452 44.3657C30.2463 43.3755 29.6418 42.2181 29.6418 42.2181C28.8445 42.0638 27.0956 42.3338 26.3755 42.7068C25.9768 42.9125 25.8739 43.0925 25.9897 43.6455C26.4655 46.0374 26.6198 46.7447 26.4912 47.2848C26.3883 47.7221 26.054 48.3779 25.6425 49.381C25.3467 50.1011 26.5041 50.9627 27.3271 48.275C27.4042 48.5708 27.1342 49.5224 26.6712 50.7441C26.3112 51.6829 27.4685 51.8115 27.6486 51.4643C27.8672 51.0528 28.163 50.4612 28.3944 49.9339C28.2144 50.6155 28.0215 51.3742 27.9701 51.6443C27.79 52.493 28.8188 52.6988 29.076 51.8629C29.1918 51.5028 29.3075 51.1556 29.4361 50.7956C29.3975 51.3099 29.3461 51.9915 29.8605 52.043C30.6063 52.1073 30.7992 50.4355 30.8121 48.828Z" fill="#E1AF8F"/>
<path d="M30.1176 42.965C30.3233 41.8719 29.256 32.3428 28.793 29.6294C28.6644 28.8964 30.4005 17.5669 29.5389 14.3905C28.6901 11.2656 25.9767 11.317 22.5817 12.0372C21.4115 12.2815 20.4856 16.5381 20.8585 18.84L22.4017 30.8639C22.466 31.6484 25.3723 43.0807 25.9124 43.9294C26.5683 44.9711 29.8989 44.0966 30.1176 42.965Z" fill="url(#paint9_linear_756_5941)"/>
<path d="M25.7581 38.2337C25.9509 36.3433 28.9087 21.426 29.2173 18.9441C29.8089 14.0445 28.0985 11.8969 24.7678 11.4854C21.1285 11.0353 11.6123 16.4364 7.58718 20.3586C6.67414 21.246 6.03115 23.0206 6.14689 24.2937C6.6227 29.5277 7.20139 34.8387 7.52289 39.8283C7.6129 41.1658 7.53575 42.5032 7.30427 43.8277C6.7513 46.9141 6.08259 51.5436 6.14689 53.7298C6.28835 58.3593 7.02135 65.6636 6.86704 70.306C6.46838 81.8798 7.54861 83.4744 8.30733 96.5528C8.43593 98.3146 13.9271 97.8131 14.0814 96.2442C14.6215 90.5216 15.213 84.979 15.5345 79.2436C15.9203 72.2093 17.5921 64.0819 18.3894 56.6489L22.7231 68.4799C22.7231 68.4799 22.6203 70.5632 22.5688 75.9129C22.5302 80.3624 23.9448 81.9184 24.2535 88.5669C24.3306 90.2515 29.7446 90.0972 29.8217 88.6441C30.439 77.9833 31.3521 72.1321 31.7764 66.2295C31.7893 65.9723 31.7893 65.7151 31.7507 65.4579C31.1206 61.2656 25.5137 40.5356 25.7581 38.2337Z" fill="url(#paint10_linear_756_5941)"/>
<path d="M7.12424 20.4867C2.32754 24.8204 0.295698 37.3459 0.0127829 39.6606C-0.334431 42.5412 6.50697 53.7807 6.50697 53.7807C7.71579 55.9154 11.1494 53.3306 10.4421 51.3759C9.46472 48.6496 6.35265 41.551 6.57127 40.3422C6.80275 39.0562 11.3294 29.0256 11.9338 26.878C13.0783 22.93 10.3778 17.5547 7.12424 20.4867Z" fill="url(#paint11_linear_756_5941)"/>
<path d="M13.3999 54.3091C13.0012 54.0519 12.564 53.8847 12.1782 53.6147C11.5481 53.1646 10.4678 51.8014 10.2492 51.5185C9.59337 50.6826 6.45558 52.1872 6.63562 53.7175C6.72564 54.4505 7.03428 55.9551 7.34291 57.2926C7.43293 57.6526 8.37169 60.7133 9.05326 60.829C9.42619 60.8933 9.83771 60.6747 9.55479 59.8388C9.91487 61.7292 11.2651 61.6777 11.1108 60.6232C11.0208 60.0445 10.8022 59.5816 10.6736 59.0029C10.9565 59.7616 11.8181 61.6006 12.6797 60.9576C12.9241 60.7776 12.9112 60.3146 12.7826 60.0317C12.6154 59.6588 11.9982 58.7843 11.7538 58.3856C12.3454 59.1829 13.207 60.4303 13.8371 59.7359C14.3129 59.2215 12.7183 57.2283 12.3839 56.4181C12.2425 56.0709 12.101 55.6979 11.9467 55.2864C13.2841 56.0323 14.943 55.3121 13.3999 54.3091Z" fill="#E1AF8F"/>
<path d="M27.597 13.2576C27.5198 13.2576 27.4427 13.2319 27.3784 13.1805L27.0826 12.9747C26.4525 12.5246 25.9381 12.1517 25.4237 11.5215C24.9607 10.9429 25.1665 10.197 25.3594 9.52828C25.5523 8.87243 25.5909 8.57666 25.4108 8.47378C23.8291 7.6379 22.5174 7.17494 21.2957 7.00777C21.0514 6.98205 20.8842 6.75057 20.9228 6.51909C20.9485 6.27476 21.18 6.10758 21.4114 6.14616C22.7489 6.3262 24.1506 6.81487 25.8223 7.70219C26.6711 8.15229 26.401 9.07819 26.2081 9.75976C26.0667 10.2356 25.9252 10.7371 26.1181 10.9686C26.5554 11.5087 27.0054 11.8302 27.5327 12.2031L27.8285 12.4089C28.0214 12.5503 28.0985 12.8461 27.9699 13.039C27.8542 13.1805 27.7256 13.2576 27.597 13.2576Z" fill="#312F2D"/>
<path d="M28.5357 5.32407C27.0568 4.60393 26.8897 10.558 26.9668 10.7123C27.2111 11.1881 27.8413 10.7766 28.1499 10.5709C28.4071 10.3908 29.3716 9.58066 29.4616 9.32347C29.4616 9.31061 30.7733 6.40429 28.5357 5.32407Z" fill="#2D2B29"/>
<path d="M15.5603 5.8905C15.6503 4.84886 16.229 2.12259 18.7238 0.746592C22.2731 -1.22095 28.3429 0.772312 28.4715 5.87764C28.5101 7.25364 27.79 9.10545 27.2241 11.0601C26.6712 12.9248 26.5297 14.1465 25.0122 15.1367C24.8708 15.5225 24.8193 18.2616 24.1121 19.0718C22.7103 20.6793 19.4568 20.0363 17.3864 18.3645C16.6791 17.7987 15.7275 16.6541 16.1261 15.0467C16.3319 14.2494 16.5376 13.0791 16.3705 11.7288C16.1904 10.2628 15.2774 8.98971 15.5603 5.8905Z" fill="url(#paint12_linear_756_5941)"/>
<path d="M23.1476 7.52277C20.9743 9.28456 20.1513 13.2711 20.9871 14.5313C21.3601 15.0972 23.2762 16.9618 25.2309 15.9459C26.2339 15.4187 26.9541 13.001 27.2884 11.9208C27.6871 10.622 28.8702 6.80262 28.0857 6.23679C27.237 5.63238 24.0221 6.81548 23.1476 7.52277Z" fill="#E1AF8F"/>
<path d="M29.4488 18.492C29.0373 18.492 28.6772 18.2348 28.4972 17.7847C28.2786 17.2575 28.3686 16.4859 28.4586 15.6629C28.5229 15.0971 28.6001 14.3898 28.4972 14.094C28.4586 14.0554 28.42 14.0168 28.3686 13.9783C28.2657 13.9654 28.2143 13.9783 28.1885 14.004C28.0214 14.184 27.7513 14.184 27.5713 14.0168C27.3912 13.8497 27.3912 13.5796 27.5584 13.3996C27.5713 13.3867 27.597 13.361 27.6099 13.3481L27.3784 13.1681C27.1855 13.0266 27.1469 12.7566 27.2884 12.5637C27.4298 12.3708 27.6999 12.3322 27.8928 12.4737L28.1371 12.6537C28.4072 12.8595 28.6515 13.0523 28.8701 13.2581C28.9987 13.3353 29.1144 13.4381 29.2045 13.5667C31.0949 15.4314 30.8377 16.936 30.6962 17.399C30.4904 18.0419 30.0275 18.4792 29.5002 18.492C29.4745 18.492 29.4617 18.492 29.4488 18.492ZM29.3845 15.1614C29.3716 15.3542 29.3459 15.56 29.3202 15.7658C29.2559 16.4088 29.1659 17.1289 29.3073 17.4633C29.3202 17.5018 29.4102 17.6433 29.4617 17.6304C29.5645 17.6304 29.7574 17.4761 29.8603 17.1418C30.0018 16.6531 29.9118 15.9587 29.3845 15.1614Z" fill="#312F2D"/>
<path d="M28.613 13.9913C28.5744 13.8369 28.5101 13.6955 28.4329 13.5669C28.3686 13.4511 28.2786 13.3611 28.1886 13.284C28.0343 13.1554 27.88 13.1296 27.7642 13.1811L26.3754 13.7083L27.0184 15.3801L28.4072 14.8529C28.5358 14.8014 28.6258 14.6728 28.6644 14.4671C28.6773 14.3256 28.6644 14.1584 28.613 13.9913Z" fill="url(#paint13_linear_756_5941)"/>
<path d="M26.7482 12.912C26.6839 12.8219 26.5682 12.8348 26.491 12.8991C25.9252 13.3492 25.205 13.5935 24.292 13.735C24.0348 13.7736 23.8676 13.9793 23.8419 14.1722L23.5718 15.8183C23.559 15.9083 23.5847 15.9726 23.6233 16.0112C23.9962 16.2684 25.025 17.1042 25.4108 17.5929L28.4457 14.3008C28.0342 14.0565 27.0054 13.2334 26.7482 12.912Z" fill="url(#paint14_linear_756_5941)"/>
<path d="M24.858 15.4209C24.8194 15.2666 24.7551 15.1252 24.6779 14.9966C24.6136 14.8808 24.5236 14.7908 24.4336 14.7137C24.2793 14.5851 24.125 14.5593 24.0092 14.6108L22.6204 15.138L23.2634 16.8098L24.6522 16.2825C24.7808 16.2311 24.8708 16.1025 24.9094 15.8968C24.9094 15.7424 24.8965 15.5753 24.858 15.4209Z" fill="url(#paint15_linear_756_5941)"/>
<path d="M23.0575 15.2284C22.736 14.9712 22.4274 15.0998 22.3631 15.5113C22.2988 15.9228 22.5045 16.4501 22.826 16.7073C23.1475 16.9645 23.4562 16.8359 23.5205 16.4244C23.5848 16.0128 23.379 15.4856 23.0575 15.2284Z" fill="#2D2B29"/>
<path d="M25.1151 16.5881C24.9479 17.6297 25.6038 18.1698 26.594 17.7969C27.5713 17.424 28.5101 16.2794 28.6773 15.2507C28.8445 14.209 28.1886 13.6689 27.2113 14.0418C26.2211 14.4148 25.2823 15.5593 25.1151 16.5881Z" fill="#3F3C39"/>
<path opacity="0.7" d="M27.1598 14.2606C26.2854 14.5949 25.4623 15.598 25.3209 16.511C25.1666 17.4241 25.7581 17.8999 26.6197 17.5784C27.4942 17.244 28.3172 16.241 28.4587 15.3279C28.613 14.4149 28.0343 13.9391 27.1598 14.2606ZM26.6454 17.4626C25.8353 17.7713 25.2952 17.3212 25.4366 16.4724C25.5781 15.6237 26.3497 14.6849 27.147 14.3763C27.9571 14.0677 28.4973 14.5177 28.3558 15.3665C28.2143 16.2152 27.4427 17.154 26.6454 17.4626Z" fill="#2D2B29"/>
<path d="M28.3815 14.1337L27.88 13.7222C27.6099 13.4907 27.1984 13.4521 26.6969 13.645C25.7195 14.0179 24.7808 15.1624 24.6136 16.1912C24.5236 16.7056 24.6522 17.0914 24.9094 17.31L25.4109 17.7215C25.1537 17.5029 25.038 17.1171 25.1151 16.6027C25.2823 15.5611 26.2211 14.4294 27.1984 14.0565C27.6999 13.8636 28.1115 13.9022 28.3815 14.1337Z" fill="url(#paint16_linear_756_5941)"/>
<path d="M26.6968 13.6312C26.0796 13.8627 25.488 14.3899 25.0894 15.02L25.5909 15.4316C25.9895 14.8143 26.5811 14.2742 27.1984 14.0427C27.6999 13.8498 28.1114 13.9012 28.3815 14.1199L27.8799 13.7083C27.6099 13.4897 27.1984 13.4383 26.6968 13.6312Z" fill="url(#paint17_linear_756_5941)"/>
<path d="M23.9062 13.0532C23.5976 13.1432 23.5461 13.3232 23.0703 13.4132C23.4304 13.0146 23.8033 12.6159 24.1634 12.2173C24.5363 11.8058 24.7935 10.8156 25.2951 10.5712C26.1309 10.1726 26.4267 10.687 26.7868 11.1113C26.9411 11.3042 27.1983 11.4971 27.4041 11.3685C26.4782 11.7157 26.9668 12.4359 26.2467 12.7831C25.5008 13.1818 25.3594 12.6159 23.9062 13.0532Z" fill="url(#paint18_linear_756_5941)"/>
<path d="M26.9284 4.89957C26.1696 5.20821 25.4366 5.9155 24.4464 6.41703C23.6105 6.82854 22.8904 6.9057 21.9645 7.34293C21.5787 7.52297 21.2186 7.7673 20.9228 8.0888C20.1641 8.93754 20.1127 9.96633 20.1384 11.1494C20.177 12.9241 20.9357 13.1684 21.3729 13.4642C20.7685 13.0527 21.0514 12.0496 21.2701 10.6608C21.4115 9.78629 22.0545 8.84753 22.8132 8.41029C24.4078 7.48439 26.7869 6.31415 28.2915 5.69688C28.6773 5.54256 29.0245 5.55542 29.256 5.7226C28.06 4.92529 27.7771 4.55236 26.9284 4.89957Z" fill="url(#paint19_linear_756_5941)"/>
<path d="M29.8732 8.17738L29.8089 6.90427C29.796 6.58277 29.6674 6.3513 29.4745 6.20984L29.0244 5.91406C29.2173 6.04266 29.3459 6.27414 29.3588 6.60849L29.4231 7.88161C29.4488 8.35742 29.3202 8.85895 29.0759 9.29618C28.8058 9.772 28.3943 10.1835 27.8542 10.5179C27.8413 10.5307 27.687 10.6336 27.4684 10.7365C27.134 10.9037 26.7225 11.0451 26.4653 10.8779L26.9154 11.1737C27.1598 11.3409 27.5713 11.2123 27.9185 11.0323C28.1371 10.9294 28.2914 10.8136 28.3043 10.8136C28.8444 10.4793 29.2559 10.0678 29.526 9.59196C29.7832 9.14187 29.8989 8.6532 29.8732 8.17738Z" fill="url(#paint20_linear_756_5941)"/>
<path d="M26.0538 10.2756C25.7581 10.0699 25.4108 10.0184 25.1279 10.1599L25.0251 10.2113C24.5492 10.4557 24.3306 11.1244 24.1377 11.7159C23.9062 12.3846 23.3276 12.7833 22.8903 13.0019C22.6717 13.1048 22.5174 13.1562 22.5174 13.1562C22.0416 13.3234 21.6944 13.3363 21.4629 13.1819L21.913 13.4777C22.1445 13.632 22.5045 13.632 22.9675 13.452C22.9675 13.452 23.1218 13.4006 23.3404 13.2977C23.7776 13.0791 24.3563 12.6804 24.5878 12.0117C24.7679 11.4202 25.1922 10.88 25.668 10.6357L25.7709 10.5843C26.0538 10.4428 26.311 10.4557 26.4911 10.5714L26.0538 10.2756Z" fill="#34322F"/>
<path d="M21.4243 12.3326L21.6558 10.9051L21.2057 10.6094L20.9742 12.0368C20.8713 12.6927 20.9742 13.1942 21.3086 13.4257L21.7587 13.7214C21.4115 13.49 21.3086 12.9884 21.4243 12.3326Z" fill="url(#paint21_linear_756_5941)"/>
<path d="M29.1917 5.67292C28.9474 5.50574 28.613 5.49288 28.2272 5.6472C27.4685 5.95583 26.4783 6.41878 25.4881 6.90746C24.5108 7.38327 23.5334 7.91052 22.749 8.36061C21.9903 8.79784 21.3473 9.73661 21.2058 10.6111L21.6559 10.9068C21.7974 10.0324 22.4918 9.17078 23.2505 8.73354C24.035 8.28345 24.9609 7.78192 25.9254 7.29325C26.9156 6.80458 27.8672 6.36735 28.6259 6.05871C29.0117 5.90439 29.3975 5.80151 29.6418 5.96869L29.1917 5.67292Z" fill="url(#paint22_linear_756_5941)"/>
<path opacity="0.6" d="M29.9376 8.10055L29.8733 6.86601C29.8347 6.10729 29.2818 5.78579 28.5745 6.08157C27.8415 6.37734 26.8898 6.81457 25.9254 7.29039C24.9866 7.75334 24.0478 8.25487 23.2891 8.6921C22.5561 9.11647 21.9388 10.0167 21.7974 10.8654L21.5787 12.2414C21.3987 13.3473 21.8359 14.0032 23.0319 13.566C23.0448 13.566 23.1991 13.5145 23.4306 13.3988C23.8678 13.1802 24.5494 12.7301 24.8451 11.8942C24.9737 11.4698 25.2952 11.0197 25.681 10.814C25.6939 10.8011 25.7582 10.7754 25.771 10.7754C26.1568 10.5825 26.4397 10.7368 26.5298 11.0583C26.7355 11.637 27.4042 11.4184 27.8415 11.2126C28.0729 11.0969 28.2273 10.994 28.2401 10.9811C29.4361 10.2353 29.989 9.10361 29.9376 8.10055Z" fill="url(#paint23_linear_756_5941)"/>
<path d="M30.0919 8.03706L30.0276 6.76394C29.989 5.97949 29.4232 5.64514 28.6773 5.95377C27.9186 6.26241 26.9284 6.72536 25.9382 7.21403C24.9608 7.68984 23.9835 8.2171 23.199 8.66719C22.4403 9.10442 21.7973 10.0432 21.6558 10.9176L21.4244 12.3451C21.2443 13.4896 21.6944 14.1712 22.929 13.7211C22.9418 13.7211 23.0961 13.6696 23.3405 13.5539C23.7906 13.3224 24.5107 12.8595 24.8065 11.9979C24.9479 11.5606 25.2694 11.0848 25.681 10.8791C25.6938 10.8662 25.7581 10.8405 25.771 10.8276C26.1696 10.6347 26.4654 10.7891 26.5554 11.1234C26.7612 11.7278 27.4556 11.5092 27.9186 11.2777C28.1629 11.162 28.3172 11.0462 28.3301 11.0334C29.5775 10.2489 30.1433 9.0787 30.0919 8.03706ZM29.526 9.59309C29.256 10.0689 28.8445 10.4804 28.3044 10.8148C28.2915 10.8276 28.1372 10.9305 27.9186 11.0334C27.4813 11.252 26.9155 11.4192 26.7483 10.9305C26.6326 10.5061 26.2468 10.3647 25.7838 10.5833L25.681 10.6347C25.2051 10.8791 24.7808 11.4192 24.6007 12.0107C24.3693 12.6794 23.7906 13.0781 23.3533 13.2967C23.1347 13.3996 22.9804 13.451 22.9804 13.451C22.4403 13.6439 22.0545 13.6311 21.823 13.3996C21.6044 13.181 21.5401 12.7823 21.6301 12.2551L21.8616 10.8276C21.9773 10.0818 22.5432 9.25874 23.199 8.87294C23.9449 8.43571 24.9094 7.92132 25.9253 7.41979C26.9412 6.91826 27.9057 6.46816 28.6516 6.17239C29.2946 5.91519 29.7832 6.21097 29.8218 6.87968L29.8861 8.1528C29.899 8.65433 29.7832 9.143 29.526 9.59309Z" fill="#F0B324"/>
<path d="M17.4635 22.9574C16.8591 22.9574 16.1004 22.7517 15.3288 21.9801C14.9044 21.5686 14.5315 21.1699 14.1971 20.797C12.924 19.4467 12.0881 18.5465 10.815 18.508C8.25589 18.4179 6.69985 16.5918 6.28834 14.8301C5.81253 12.8239 6.69985 10.8821 8.5388 9.87905C9.38755 9.41609 10.4035 8.966 11.7409 8.37445C11.9595 8.28443 12.2167 8.37445 12.3196 8.59307C12.4225 8.81168 12.3196 9.06888 12.101 9.17176C10.7764 9.75045 9.7862 10.2005 8.96318 10.6378C7.16281 11.6151 6.84131 13.3383 7.14994 14.6243C7.4843 16.0646 8.77028 17.5563 10.8664 17.6335C12.4996 17.6978 13.4898 18.7394 14.853 20.1926C15.1873 20.5527 15.5602 20.9385 15.9718 21.35C16.5376 21.9158 17.142 22.1473 17.7721 22.0444C18.5051 21.9287 19.1996 21.35 19.6111 20.5527C19.8425 20.0768 19.9969 19.5367 20.164 18.9709C20.5627 17.5949 21.0128 16.0389 22.7746 15.5502C23.0061 15.4988 23.2504 15.6274 23.3147 15.8588C23.379 16.0903 23.2375 16.3347 23.0061 16.399C21.7072 16.7462 21.3857 17.8907 20.9999 19.2152C20.8328 19.8068 20.6527 20.4112 20.3827 20.9513C19.8554 21.993 18.9038 22.7517 17.9136 22.906C17.7464 22.9446 17.6049 22.9574 17.4635 22.9574Z" fill="#312F2D"/>
<defs>
<linearGradient id="paint0_linear_756_5941" x1="23.9022" y1="97.6675" x2="53.967" y2="97.6675" gradientUnits="userSpaceOnUse">
<stop stop-color="#2D2B29"/>
<stop offset="0.5649" stop-color="#353330"/>
<stop offset="1" stop-color="#3F3C39"/>
</linearGradient>
<linearGradient id="paint1_linear_756_5941" x1="7.89827" y1="107.019" x2="23.6503" y2="107.019" gradientUnits="userSpaceOnUse">
<stop stop-color="#2D2B29"/>
<stop offset="0.5649" stop-color="#353330"/>
<stop offset="1" stop-color="#3F3C39"/>
</linearGradient>
<linearGradient id="paint2_linear_756_5941" x1="6.45724" y1="41.8142" x2="17.514" y2="42.1173" gradientUnits="userSpaceOnUse">
<stop stop-color="#2D2B29"/>
<stop offset="0.5649" stop-color="#353330"/>
<stop offset="1" stop-color="#3F3C39"/>
</linearGradient>
<radialGradient id="paint3_radial_756_5941" cx="0" cy="0" r="1" gradientUnits="userSpaceOnUse" gradientTransform="translate(15.9189 10.6322) rotate(1.57014) scale(9.7539)">
<stop stop-color="#FFD040"/>
<stop offset="0.263" stop-color="#FCCB3C"/>
<stop offset="0.5723" stop-color="#F2BD2F"/>
<stop offset="0.9038" stop-color="#E3A519"/>
<stop offset="1" stop-color="#DD9D12"/>
</radialGradient>
<linearGradient id="paint4_linear_756_5941" x1="17.9106" y1="27.0375" x2="7.00906" y2="26.7387" gradientUnits="userSpaceOnUse">
<stop stop-color="#F0B324"/>
<stop offset="1" stop-color="#D28D05"/>
</linearGradient>
<linearGradient id="paint5_linear_756_5941" x1="13.3022" y1="8.88666" x2="7.77604" y2="22.281" gradientUnits="userSpaceOnUse">
<stop stop-color="#FFD040"/>
<stop offset="0.9951" stop-color="#D8950B"/>
</linearGradient>
<linearGradient id="paint6_linear_756_5941" x1="11.2134" y1="11.0285" x2="14.5505" y2="11.12" gradientUnits="userSpaceOnUse">
<stop stop-color="#D28D05"/>
<stop offset="1" stop-color="#F0B324"/>
</linearGradient>
<linearGradient id="paint7_linear_756_5941" x1="11.5943" y1="7.90063" x2="14.3411" y2="7.97592" gradientUnits="userSpaceOnUse">
<stop stop-color="#B3B4AD"/>
<stop offset="0.3991" stop-color="#BABBB4"/>
<stop offset="0.9744" stop-color="#CCCEC6"/>
<stop offset="1" stop-color="#CDCFC7"/>
</linearGradient>
<linearGradient id="paint8_linear_756_5941" x1="11.0756" y1="5.52217" x2="14.9893" y2="5.62945" gradientUnits="userSpaceOnUse">
<stop stop-color="#2D2B29"/>
<stop offset="0.5649" stop-color="#353330"/>
<stop offset="1" stop-color="#3F3C39"/>
</linearGradient>
<linearGradient id="paint9_linear_756_5941" x1="25.2931" y1="17.4808" x2="27.1779" y2="47.56" gradientUnits="userSpaceOnUse">
<stop stop-color="#2D2B29"/>
<stop offset="0.5649" stop-color="#353330"/>
<stop offset="1" stop-color="#3F3C39"/>
</linearGradient>
<linearGradient id="paint10_linear_756_5941" x1="14.032" y1="53.7897" x2="29.3652" y2="57.3452" gradientUnits="userSpaceOnUse">
<stop stop-color="#2D2B29"/>
<stop offset="0.5649" stop-color="#353330"/>
<stop offset="1" stop-color="#3F3C39"/>
</linearGradient>
<linearGradient id="paint11_linear_756_5941" x1="3.18398" y1="8.29271" x2="9.15958" y2="57.2821" gradientUnits="userSpaceOnUse">
<stop stop-color="#2D2B29"/>
<stop offset="0.5649" stop-color="#353330"/>
<stop offset="1" stop-color="#3F3C39"/>
</linearGradient>
<linearGradient id="paint12_linear_756_5941" x1="15.3903" y1="9.74229" x2="28.3071" y2="10.2516" gradientUnits="userSpaceOnUse">
<stop stop-color="#2D2B29"/>
<stop offset="0.5649" stop-color="#353330"/>
<stop offset="1" stop-color="#3F3C39"/>
</linearGradient>
<linearGradient id="paint13_linear_756_5941" x1="27.3087" y1="13.3503" x2="27.9441" y2="15.0319" gradientUnits="userSpaceOnUse">
<stop stop-color="#45423E"/>
<stop offset="1" stop-color="#393634"/>
</linearGradient>
<linearGradient id="paint14_linear_756_5941" x1="25.7189" y1="14.7101" x2="25.099" y2="15.4676" gradientUnits="userSpaceOnUse">
<stop stop-color="#45423E"/>
<stop offset="0.352" stop-color="#3C3936"/>
<stop offset="0.7232" stop-color="#2D2B29"/>
</linearGradient>
<linearGradient id="paint15_linear_756_5941" x1="23.5446" y1="14.7749" x2="24.1799" y2="16.4564" gradientUnits="userSpaceOnUse">
<stop stop-color="#45423E"/>
<stop offset="1" stop-color="#393634"/>
</linearGradient>
<linearGradient id="paint16_linear_756_5941" x1="27.2855" y1="13.8775" x2="25.7507" y2="15.7525" gradientUnits="userSpaceOnUse">
<stop stop-color="#3F3C39"/>
<stop offset="0.4351" stop-color="#353330"/>
<stop offset="1" stop-color="#2D2B29"/>
</linearGradient>
<linearGradient id="paint17_linear_756_5941" x1="27.6016" y1="13.4903" x2="25.4655" y2="16.1002" gradientUnits="userSpaceOnUse">
<stop stop-color="#4D4841"/>
<stop offset="0.3862" stop-color="#47433E"/>
<stop offset="0.4926" stop-color="#44413C"/>
<stop offset="0.5109" stop-color="#43403B"/>
<stop offset="1" stop-color="#2E2C29"/>
</linearGradient>
<linearGradient id="paint18_linear_756_5941" x1="23.0061" y1="11.9996" x2="27.4436" y2="11.7815" gradientUnits="userSpaceOnUse">
<stop stop-color="#2D2B29"/>
<stop offset="0.5649" stop-color="#353330"/>
<stop offset="1" stop-color="#3F3C39"/>
</linearGradient>
<linearGradient id="paint19_linear_756_5941" x1="24.2744" y1="8.12397" x2="21.8222" y2="11.8084" gradientUnits="userSpaceOnUse">
<stop stop-color="#4D4841"/>
<stop offset="0.3862" stop-color="#47433E"/>
<stop offset="0.4926" stop-color="#44413C"/>
<stop offset="0.5109" stop-color="#43403B"/>
<stop offset="1" stop-color="#2E2C29"/>
</linearGradient>
<linearGradient id="paint20_linear_756_5941" x1="28.3501" y1="9.14591" x2="27.1625" y2="10.9302" gradientUnits="userSpaceOnUse">
<stop stop-color="#2D2B29"/>
<stop offset="0.7318" stop-color="#312F2C"/>
<stop offset="1" stop-color="#34322F"/>
</linearGradient>
<linearGradient id="paint21_linear_756_5941" x1="23.1566" y1="9.64257" x2="21.4987" y2="12.1335" gradientUnits="userSpaceOnUse">
<stop stop-color="#E9AA1C"/>
<stop offset="0.5817" stop-color="#D9960C"/>
<stop offset="1" stop-color="#D28D05"/>
</linearGradient>
<linearGradient id="paint22_linear_756_5941" x1="24.4558" y1="9.50194" x2="22.5243" y2="12.4041" gradientUnits="userSpaceOnUse">
<stop stop-color="#FFD040"/>
<stop offset="1" stop-color="#E7AC20"/>
</linearGradient>
<linearGradient id="paint23_linear_756_5941" x1="29.6993" y1="7.09929" x2="19.9834" y2="13.8689" gradientUnits="userSpaceOnUse">
<stop stop-color="#80BED9"/>
<stop offset="0.2418" stop-color="#66A8C3"/>
<stop offset="0.7489" stop-color="#357D98"/>
<stop offset="1" stop-color="#226D87"/>
</linearGradient>
</defs>
</svg>
