<svg width="222" height="191" viewBox="0 0 222 191" fill="none" xmlns="http://www.w3.org/2000/svg">
<g clip-path="url(#clip0_756_5897)">
<path d="M44.9645 128.232C45.142 127.475 47.6223 124.34 48.2253 123.979C48.522 123.81 51.7413 126.69 51.5606 127.159C51.0318 128.505 50.2018 129.262 49.8765 130.945C49.6707 132.003 49.7763 134.752 48.7349 134.449C47.4338 134.084 47.8867 132.496 47.9064 131.239C47.5072 131.611 47.0851 132.064 47.0851 132.064C46.7842 132.924 46.8876 134.405 46.1486 135.163C44.95 136.37 43.963 132.424 44.9645 128.232Z" fill="#E1AF8F"/>
<path d="M46.9819 125.258C47.4985 123.88 53.4341 115.311 55.5547 112.37C56.1311 111.567 60.4079 100.87 63.6355 98.2598C66.9454 95.5813 69.2051 95.1938 72.7556 95.8451C74.2991 96.1339 74.4545 99.8046 72.6868 102.301L62.3615 116.558C61.9629 117.165 50.9296 128.381 50.9296 128.381C49.4053 128.936 46.5557 126.401 46.9819 125.258Z" fill="url(#paint0_linear_756_5897)"/>
<path d="M153.131 54.8159C155.386 53.1081 157.977 46.9413 158.177 42.6439C158.179 42.4621 158.337 42.31 158.513 42.2962C159.417 42.1989 160.35 42.127 161.203 42.4118C161.975 42.6738 162.697 43.2269 163.505 43.1129C163.897 43.0511 164.883 42.4153 166.06 42.6469C167.485 42.9094 168.358 43.0595 169.018 42.9848C170.29 42.8537 170.682 42.2306 172.159 42.02C172.552 41.9582 172.886 42.3537 172.782 42.7383C170.76 49.3908 163.734 53.9815 159.472 56.2142C157.349 57.3275 154.784 57.2539 152.758 55.9567C152.637 55.877 152.581 55.8263 152.559 55.8166C152.35 55.3723 152.774 55.0631 153.131 54.8159Z" fill="url(#paint1_linear_756_5897)"/>
<path d="M147.207 51.409C149.018 50.7064 150.709 52.8218 151.756 53.7013C155.478 56.8036 159.202 56.265 160.444 55.6381C157.653 57.3184 154.661 58.4792 151.764 57.9726C151.235 57.8699 150.481 57.42 150.006 57.7851C149.042 58.5215 148.181 59.1994 147.244 58.5124C146.435 57.9207 146.169 56.3939 145.339 55.7017C145.339 55.7017 145.585 54.7007 145.806 53.6368C146.024 52.6104 146.372 51.7328 147.207 51.409Z" fill="url(#paint2_linear_756_5897)"/>
<path d="M115.132 40.3774C116.736 39.3748 118.286 40.8929 119.665 41.5532C121.603 42.4858 123.756 42.9909 125.714 43.8798C133.669 47.4774 138.418 61.9175 134.562 61.3665C134.233 61.3129 133.95 61.0967 133.625 61.0056C132.752 60.7645 131.938 61.515 131.027 61.5965C129.658 61.711 128.727 60.4783 127.165 61.356C126.54 61.707 125.818 62.3675 125.226 61.9631C124.999 61.7977 124.804 61.5291 124.801 61.2406C124.838 56.2454 124.593 52.1567 122.916 48.8591C122.409 47.8786 121.114 45.7547 119.799 45.7756C118.484 45.7965 118.099 48.1194 116.495 47.3471C115.586 46.9206 115.04 45.4662 114.095 44.9452C114.095 44.9452 114.147 43.9109 114.159 42.8197C114.195 41.7915 114.358 40.8586 115.132 40.3774Z" fill="url(#paint3_linear_756_5897)"/>
<path d="M137.576 75.3029C135.242 78.2548 124.624 85.543 122.331 87.012C112.485 93.3485 110.201 94.7957 108.733 95.7276C107.15 96.7399 94.7538 106.638 93.0556 107.912C90.9023 109.508 90.5361 110.9 82.4657 109.901C73.9754 108.847 63.2787 104.955 63.2847 100.859C63.2777 99.1594 64.9251 97.9408 66.288 96.9232C72.5896 92.2874 93.9188 82.529 95.8009 81.0745L105.143 64.845C105.143 64.845 106.457 59.0288 107.99 53.8702C108.494 52.135 112.739 46.5403 113.659 44.9881C114.579 43.4359 118.759 45.2916 118.365 46.658C116.325 53.8246 111.478 70.9002 110.102 77.8635C109.731 79.7099 108.986 81.104 109.35 81.1078C112.389 81.1423 130.887 69.2221 130.887 69.2221C134.778 65.2859 134.43 62.6136 145.403 55.5862C147.085 53.9917 150.323 56.3583 149.432 57.845C148.224 59.8709 140.393 71.7287 137.576 75.3029Z" fill="url(#paint4_linear_756_5897)"/>
<path d="M95.2149 102.221C98.7319 104.841 105.255 115.677 106.7 118.377C108.493 121.738 109.063 137.781 109.063 137.781C109.261 141.001 103.615 140.601 103.006 137.957C102.149 134.251 99.811 123.693 98.9754 122.333C98.0812 120.869 89.4484 110.525 87.663 108.211C85.0974 104.913 90.5993 98.7767 95.2149 102.221Z" fill="url(#paint5_linear_756_5897)"/>
<path d="M101.946 143.259C102.197 142.691 102.569 142.202 102.782 141.63C103.159 140.687 103.356 138.438 103.398 137.987C103.519 136.617 108.021 136.03 108.899 137.827C109.32 138.678 110.062 140.545 110.662 142.232C110.824 142.695 111.957 146.693 111.302 147.291C110.944 147.629 110.331 147.686 110.042 146.566C110.977 148.884 109.481 149.79 108.901 148.53C108.595 147.834 108.499 147.165 108.224 146.456C108.461 147.488 108.812 150.122 107.417 150.029C107.01 150.006 106.701 149.492 106.655 149.093C106.576 148.562 106.622 147.186 106.619 146.572C106.543 147.869 106.488 149.829 105.296 149.512C104.407 149.277 104.74 145.978 104.526 144.866C104.434 144.395 104.324 143.876 104.201 143.326C103.301 145.07 100.972 145.466 101.946 143.259Z" fill="#E1AF8F"/>
<path d="M69.6194 109.903C69.7296 109.86 69.8277 109.786 69.8916 109.67C70.045 109.412 69.964 109.063 69.7052 108.909C68.3774 108.102 65.0011 108.18 63.5987 108.489C62.4666 108.747 61.0372 108.939 60.1887 108.2C59.2624 107.4 59.3733 105.817 59.5926 104.374C60.1588 100.695 61.6414 96.3888 65.4301 96.7666C66.2041 96.8467 68.5821 97.1378 69.9324 97.3023C70.2927 97.3437 70.5621 97.3841 70.7816 97.3895C70.8035 97.3991 70.8411 97.4026 70.8629 97.4123C71.3396 97.4266 71.4412 97.3148 71.4984 96.9484C71.5425 96.6416 71.3258 96.3634 71.0346 96.3133C70.8999 96.2931 70.5554 96.2456 70.0665 96.1998C68.7161 96.0354 66.3321 95.7285 65.5424 95.6545C62.9729 95.3834 59.6592 96.6506 58.4872 104.187C58.2178 105.921 58.1187 107.861 59.4584 109.026C60.6862 110.089 62.4296 109.866 63.832 109.557C65.1653 109.258 68.1829 109.283 69.1244 109.841C69.2799 109.962 69.4619 109.964 69.6194 109.903Z" fill="#312F2D"/>
<path d="M95.8593 76.1793L103.016 71.9726C103.805 71.4852 104.899 71.5498 106.125 72.2336C108.539 73.5976 110.514 76.9609 110.54 79.7397C110.548 81.1133 110.092 82.0871 109.312 82.5525L102.156 86.7593L95.8593 76.1793Z" fill="url(#paint6_linear_756_5897)"/>
<path d="M103.4 83.9408C103.427 86.7196 101.476 87.8566 99.0622 86.4926C96.6486 85.1286 94.6736 81.7653 94.6467 78.9865C94.6199 76.2077 96.5707 75.0707 98.9842 76.4347C101.398 77.7987 103.373 81.162 103.4 83.9408Z" fill="#2E2C2A"/>
<path d="M95.8721 76.4464C96.6423 76.0027 97.7146 76.0577 98.8868 76.7441C99.7505 77.2422 100.536 78.0061 101.204 78.8879C101.81 79.7033 102.293 80.6208 102.622 81.5619C102.908 82.3927 103.065 83.2191 103.06 83.9999C103.059 85.3045 102.585 86.231 101.846 86.6624L80.4553 99.252L74.4813 89.036L95.8721 76.4464Z" fill="url(#paint7_linear_756_5897)"/>
<path d="M77.3724 99.7592C78.8651 100.104 80.0545 99.4796 80.4614 99.2674C81.2001 98.836 81.6742 97.9095 81.6756 96.6049C81.6975 93.9521 79.8186 90.6964 77.5021 89.3491C76.3299 88.6627 75.2515 88.592 74.4874 89.0514C69.9799 91.9589 73.2607 98.7822 77.3724 99.7592Z" fill="url(#paint8_radial_756_5897)"/>
<path d="M74.5864 97.4352C74.5838 98.2694 74.0122 98.6178 73.2701 98.1994C72.5279 97.7809 71.9394 96.7776 71.9359 95.9277C71.9385 95.0935 72.5101 94.7451 73.2522 95.1635C73.9944 95.582 74.5671 96.5914 74.5864 97.4352Z" fill="#DE9D12"/>
<path d="M72.3024 95.0972L73.7955 94.2283C74.0292 94.0833 74.3615 94.0993 74.7295 94.3007C75.4499 94.7095 76.0602 95.7225 76.0637 96.5724C76.0624 96.9894 75.9213 97.2796 75.6876 97.4246L74.1945 98.2935C74.4282 98.1486 74.5693 97.8584 74.5706 97.4413C74.5732 96.6072 73.9629 95.5942 73.2365 95.1696C72.8842 94.9621 72.5518 94.9462 72.3024 95.0972Z" fill="url(#paint9_linear_756_5897)"/>
<path d="M71.0448 99.1892C71.0563 99.873 70.5732 100.169 69.9682 99.8241C69.3633 99.4792 68.8796 98.6525 68.8681 97.9688C68.8565 97.285 69.3397 96.989 69.9446 97.3339C70.5434 97.6631 71.0332 98.5054 71.0448 99.1892Z" fill="#ECEEE7"/>
<path d="M69.1706 97.2538L72.3615 95.4365C72.554 95.3256 72.8269 95.3284 73.1294 95.5009C73.7343 95.8458 74.218 96.6724 74.2296 97.3562C74.2353 97.6981 74.1135 97.9445 73.921 98.0555L70.73 99.8727C70.9226 99.7618 71.0444 99.5153 71.0386 99.1735C71.0271 98.4897 70.5373 97.6473 69.9385 97.3181C69.6421 97.1614 69.3631 97.1429 69.1706 97.2538Z" fill="url(#paint10_linear_756_5897)"/>
<path d="M67.6065 97.4253L69.3744 96.3773C69.6554 96.214 70.0411 96.2274 70.4808 96.4734C71.3383 96.9558 72.0377 98.1516 72.0367 99.13C72.0441 99.6161 71.8679 99.9561 71.6088 100.129L69.8409 101.177L67.6065 97.4253Z" fill="url(#paint11_linear_756_5897)"/>
<path d="M70.2688 100.178C70.2678 101.157 69.5921 101.564 68.7346 101.081C67.877 100.599 67.1776 99.403 67.1786 98.4246C67.1796 97.4462 67.8553 97.0392 68.7129 97.5216C69.5547 98.0101 70.2541 99.2059 70.2688 100.178Z" fill="#45423E"/>
<path d="M69.1088 99.5231C69.1155 99.774 68.9387 99.8788 68.7237 99.7449C68.5148 99.6267 68.3235 99.3206 68.3325 99.0635C68.3258 98.8126 68.5026 98.7077 68.7176 98.8417C68.9327 98.9756 69.102 99.2721 69.1088 99.5231Z" fill="#CDCFC7"/>
<path d="M75.3234 112.182C75.3944 111.991 75.4873 111.81 75.5924 111.661C75.6879 111.533 75.8052 111.415 75.9348 111.329C76.1527 111.19 76.3443 111.17 76.4973 111.238L78.2108 112.058L77.2194 114.127L75.5059 113.306C75.3529 113.239 75.242 113.047 75.2353 112.796C75.2093 112.588 75.2366 112.379 75.3234 112.182Z" fill="url(#paint12_linear_756_5897)"/>
<path d="M77.6203 112.124C78.0501 111.831 78.4339 112.026 78.4753 112.553C78.5168 113.081 78.1898 113.733 77.7601 114.026C77.3303 114.32 76.9465 114.124 76.9051 113.597C76.8636 113.07 77.1906 112.418 77.6203 112.124Z" fill="#2D2B29"/>
<path d="M85.1172 114.541C85.8103 114.272 86.3635 113.876 86.7707 113.338C87.6904 112.112 87.6651 110.365 86.6935 108.514C86.0877 107.372 85.775 106.099 85.4806 104.873C84.7864 102.009 84.0556 99.0505 79.7305 98.0838C77.8058 97.6531 75.4639 97.2213 73.7542 96.9245L73.0905 96.8016C72.7774 96.7419 72.4929 96.9428 72.4489 97.2497C72.383 97.5469 72.59 97.847 72.8969 97.8909L73.5607 98.0138C75.2607 98.3324 77.5808 98.7547 79.4994 99.1696C83.1485 99.9819 83.7443 102.359 84.4237 105.138C84.7425 106.427 85.07 107.785 85.7343 109.031C86.4938 110.475 86.558 111.808 85.9151 112.674C85.0813 113.794 83.1016 114.109 80.4877 113.583C79.6771 113.409 79.3711 113.274 78.7189 112.947L78.2975 112.749C78.0134 112.623 77.6923 112.73 77.5669 113.014C77.4415 113.298 77.5479 113.619 77.8321 113.744L78.2535 113.943C78.9432 114.273 79.3428 114.462 80.2881 114.657C82.2224 115.066 83.873 115.023 85.1172 114.541Z" fill="#312F2D"/>
<path d="M71.0014 119.165C69.9249 119.8 69.2808 120.194 68.5389 120.337C67.294 120.585 64.2848 120.067 63.3935 119.218C59.7068 115.74 61.4877 113.183 66.1209 111.441C69.5413 110.168 71.1786 110.185 73.9778 113.337C75.8282 115.445 73.2271 117.849 71.0014 119.165Z" fill="url(#paint13_linear_756_5897)"/>
<path d="M56.2134 111.498C56.5687 107.883 59.4485 105.824 60.6256 105.168C64.1062 103.257 66.0624 103.675 67.8656 103.139C69.5271 102.657 70.2986 102.684 71.1398 102.05C72.81 100.75 74.9031 100.681 76.3782 101.213C79.5686 102.385 81.5758 105.971 80.4108 108.433C79.8078 109.681 73.085 117.342 68.7305 119.43C62.0202 122.685 55.713 116.655 56.2134 111.498Z" fill="url(#paint14_linear_756_5897)"/>
<path opacity="0.3" d="M56.8428 110.131C55.844 113.489 57.4953 116.906 59.5467 117.523C61.5919 118.124 64.0529 115.92 65.0675 112.556C66.0663 109.198 65.2221 105.994 63.1926 105.386C61.1412 104.769 57.8478 106.789 56.8428 110.131Z" fill="url(#paint15_linear_756_5897)"/>
</g>
<defs>
<linearGradient id="paint0_linear_756_5897" x1="47.8834" y1="130.501" x2="68.0351" y2="100.144" gradientUnits="userSpaceOnUse">
<stop stop-color="#34312F"/>
<stop offset="1" stop-color="#3F3C39"/>
</linearGradient>
<linearGradient id="paint1_linear_756_5897" x1="153.008" y1="42.6349" x2="138.327" y2="32.9287" gradientUnits="userSpaceOnUse">
<stop stop-color="#2D2B29"/>
<stop offset="0.5649" stop-color="#353330"/>
<stop offset="1" stop-color="#3F3C39"/>
</linearGradient>
<linearGradient id="paint2_linear_756_5897" x1="158.938" y1="51.7224" x2="145.783" y2="56.8251" gradientUnits="userSpaceOnUse">
<stop stop-color="#2D2B29"/>
<stop offset="0.5649" stop-color="#353330"/>
<stop offset="1" stop-color="#3F3C39"/>
</linearGradient>
<linearGradient id="paint3_linear_756_5897" x1="130.694" y1="47.3926" x2="119.85" y2="54.1596" gradientUnits="userSpaceOnUse">
<stop stop-color="#2D2B29"/>
<stop offset="0.5649" stop-color="#353330"/>
<stop offset="1" stop-color="#3F3C39"/>
</linearGradient>
<linearGradient id="paint4_linear_756_5897" x1="115.68" y1="90.9485" x2="104.603" y2="76.9726" gradientUnits="userSpaceOnUse">
<stop stop-color="#2D2B29"/>
<stop offset="0.5649" stop-color="#353330"/>
<stop offset="1" stop-color="#3F3C39"/>
</linearGradient>
<linearGradient id="paint5_linear_756_5897" x1="108.511" y1="138.02" x2="91.2913" y2="100.613" gradientUnits="userSpaceOnUse">
<stop stop-color="#2D2B29"/>
<stop offset="0.5649" stop-color="#353330"/>
<stop offset="1" stop-color="#3F3C39"/>
</linearGradient>
<linearGradient id="paint6_linear_756_5897" x1="100.987" y1="73.1584" x2="107.234" y2="83.7768" gradientUnits="userSpaceOnUse">
<stop stop-color="#4D4841"/>
<stop offset="0.3862" stop-color="#47433E"/>
<stop offset="0.4926" stop-color="#44413C"/>
<stop offset="0.5109" stop-color="#43403B"/>
<stop offset="1" stop-color="#2E2C29"/>
</linearGradient>
<linearGradient id="paint7_linear_756_5897" x1="92.8386" y1="91.7856" x2="85.8775" y2="82.4396" gradientUnits="userSpaceOnUse">
<stop stop-color="#D28D05"/>
<stop offset="0.6552" stop-color="#F0B324"/>
<stop offset="1" stop-color="#FFD040"/>
</linearGradient>
<radialGradient id="paint8_radial_756_5897" cx="0" cy="0" r="1" gradientUnits="userSpaceOnUse" gradientTransform="translate(73.2348 89.983) rotate(158.8) scale(11.7607 11.7552)">
<stop stop-color="#FFD040"/>
<stop offset="0.263" stop-color="#FCCB3C"/>
<stop offset="0.5723" stop-color="#F2BD2F"/>
<stop offset="0.9038" stop-color="#E3A519"/>
<stop offset="1" stop-color="#DD9D12"/>
</radialGradient>
<linearGradient id="paint9_linear_756_5897" x1="73.5189" y1="94.3747" x2="75.4042" y2="97.5795" gradientUnits="userSpaceOnUse">
<stop stop-color="#FFD040"/>
<stop offset="0.3448" stop-color="#F0B324"/>
<stop offset="1" stop-color="#D28D05"/>
</linearGradient>
<linearGradient id="paint10_linear_756_5897" x1="71.1404" y1="96.1018" x2="72.7156" y2="98.7794" gradientUnits="userSpaceOnUse">
<stop stop-color="#B3B4AD"/>
<stop offset="0.3991" stop-color="#BABBB4"/>
<stop offset="0.9744" stop-color="#CCCEC6"/>
<stop offset="1" stop-color="#CDCFC7"/>
</linearGradient>
<linearGradient id="paint11_linear_756_5897" x1="69.0358" y1="96.5848" x2="71.2469" y2="100.343" gradientUnits="userSpaceOnUse">
<stop stop-color="#2D2B29"/>
<stop offset="0.5649" stop-color="#353330"/>
<stop offset="1" stop-color="#3F3C39"/>
</linearGradient>
<linearGradient id="paint12_linear_756_5897" x1="77.0501" y1="111.503" x2="76.063" y2="113.574" gradientUnits="userSpaceOnUse">
<stop stop-color="#45423E"/>
<stop offset="1" stop-color="#393634"/>
</linearGradient>
<linearGradient id="paint13_linear_756_5897" x1="74.333" y1="113.682" x2="61.8696" y2="117.628" gradientUnits="userSpaceOnUse">
<stop stop-color="#E9AA1C"/>
<stop offset="0.5817" stop-color="#D9960C"/>
<stop offset="1" stop-color="#D28D05"/>
</linearGradient>
<linearGradient id="paint14_linear_756_5897" x1="72.7886" y1="116.117" x2="63.8841" y2="103.185" gradientUnits="userSpaceOnUse">
<stop stop-color="#2D2B29"/>
<stop offset="0.5649" stop-color="#353330"/>
<stop offset="1" stop-color="#3F3C39"/>
</linearGradient>
<linearGradient id="paint15_linear_756_5897" x1="67.05" y1="112.903" x2="57.2591" y2="110.407" gradientUnits="userSpaceOnUse">
<stop/>
<stop offset="0.2314" stop-color="#080807"/>
<stop offset="0.5929" stop-color="#1E1D1B"/>
<stop offset="1" stop-color="#3F3C39"/>
</linearGradient>
<clipPath id="clip0_756_5897">
<rect width="186" height="131" fill="white" transform="matrix(-0.932321 0.361633 0.361633 0.932321 174.019 0.800781)"/>
</clipPath>
</defs>
</svg>
