<svg width="248" height="186" viewBox="0 0 248 186" fill="none" xmlns="http://www.w3.org/2000/svg">
<rect width="248" height="186" rx="8" fill="white"/>
<path d="M50.6207 55C29.2911 55 12 72.237 12 93.5C12 114.763 29.2911 132 50.6207 132C71.9503 132 89.2414 114.763 89.2414 93.5C89.2414 83.2892 85.1724 73.4965 77.9296 66.2764C70.6869 59.0562 60.8635 55 50.6207 55Z" fill="white"/>
<path d="M27.4483 103.74C27.0263 102.08 26.7039 100.396 26.4827 98.6968C26.6917 98.7522 26.9048 98.7908 27.12 98.8123H27.7186C28.1627 99.7171 29.3793 100.121 32.3724 100.737C33.5356 100.993 34.6732 101.354 35.771 101.815C36.7281 102.205 37.7164 102.514 38.7255 102.739C38.7255 103.067 38.8221 103.394 38.88 103.74C38.9885 104.072 38.919 104.437 38.6959 104.706C38.4727 104.975 38.1269 105.112 37.7793 105.069H29.051C28.2437 105.089 27.544 104.515 27.4096 103.721L27.4483 103.74ZM55.4096 69.7063H45.7545C44.7712 69.7662 43.9122 70.3896 43.5531 71.3041L41.3517 78.7731C41.209 79.1604 41.2702 79.5931 41.5148 79.9259C41.7594 80.2588 42.1548 80.4474 42.5683 80.4286H58.6924C59.1025 80.4408 59.4919 80.2494 59.7318 79.9176C59.9717 79.5859 60.0308 79.1571 59.8896 78.7731L57.611 71.3041C57.2519 70.3896 56.3929 69.7662 55.4096 69.7063ZM41.4676 69.7063H35.1724C34.2318 69.7711 33.3818 70.2882 32.8938 71.0923C32.6621 71.4196 32.4689 71.7661 32.2565 72.1126C32.4281 72.2813 32.5716 72.4762 32.6814 72.6901L32.9517 73.2483H33.4345C34.3614 73.2483 35.3655 71.3233 35.3655 71.3233C35.3655 71.3233 37.451 73.8643 36.6207 75.7123C36.1883 76.8115 35.157 77.5619 33.9752 77.6373H33.6469C33.4121 77.8218 33.1599 77.983 32.8938 78.1186C32.8798 78.8957 32.6382 79.6519 32.1986 80.2938H37.9917C38.8356 80.2422 39.5476 79.6494 39.7489 78.8308C40.3823 76.1529 41.2017 73.5221 42.2014 70.9576C42.2014 70.9576 42.9158 69.5716 41.4676 69.5716V69.7063ZM76.2262 69.5716H71.0317C68.9076 69.5716 69.9117 70.8998 69.9117 70.8998C71.6812 73.3097 73.0504 75.9876 73.9669 78.8308C74.1847 79.7109 74.989 80.3202 75.8979 80.2938H83.1779C85.1089 80.2938 84.3945 78.5036 84.3945 78.5036C83.3029 75.6788 81.7138 73.0711 79.7021 70.8036C78.6815 69.9739 77.3865 69.555 76.0717 69.6293L76.2262 69.5716ZM72.2096 81.8338H63.4621C63.1144 81.7903 62.7686 81.9271 62.5455 82.1964C62.3223 82.4656 62.2529 82.83 62.3614 83.1621C62.7697 85.5947 63.0212 88.0509 63.1145 90.5156C63.9158 90.13 64.7929 89.9262 65.6827 89.9188C66.3184 90.0202 66.9695 89.8904 67.5172 89.5531C67.7331 89.1859 68.0474 88.8859 68.4248 88.6868V88.4366C68.7853 87.4126 69.6847 86.6717 70.7614 86.5116C70.9475 86.4927 71.1352 86.4927 71.3214 86.5116C72.2323 86.5514 73.0974 86.921 73.7545 87.5511C74.0499 87.8115 74.3593 88.0557 74.6814 88.2826C74.4857 86.5917 74.1891 84.914 73.7931 83.2583C73.6748 82.4553 72.965 81.8725 72.1517 81.9108L72.2096 81.8338ZM73.7931 103.74C74.2189 102.057 74.5286 100.346 74.72 98.6198C74.3785 97.1628 73.6362 95.8295 72.5765 94.7698L72.1903 94.4233C71.0133 94.1782 69.7914 94.2581 68.6565 94.6543C66.5321 95.6218 64.5763 96.9215 62.8634 98.5043C62.8634 99.0818 62.8634 99.6593 62.7089 100.237C64.2384 100.412 65.6857 101.02 66.88 101.989C68.6697 103.413 70.7864 104.372 73.04 104.78C73.3991 104.532 73.6427 104.15 73.7158 103.721L73.7931 103.74ZM59.6579 117.196H66.0689C67.0116 117.138 67.8644 116.619 68.3476 115.81C69.889 113.568 71.1838 111.167 72.2096 108.649C69.8483 108.358 67.5285 107.796 65.2965 106.974H65.0455C63.9648 107.25 62.858 107.411 61.7434 107.456C61.6783 107.591 61.6266 107.733 61.5889 107.879C60.9402 110.555 60.1145 113.185 59.1172 115.752C59.1172 115.752 58.4027 117.138 59.851 117.138L59.6579 117.196ZM32.9517 115.752C33.4397 116.556 34.2898 117.074 35.2303 117.138H41.5448C42.9931 117.138 42.2786 115.752 42.2786 115.752C41.279 113.188 40.4595 110.557 39.8262 107.879C39.6249 107.061 38.9128 106.468 38.0689 106.416H29.6883C28.1241 106.416 28.8 107.898 28.8 107.898C29.8511 110.664 31.2182 113.299 32.8745 115.752H32.9517ZM76.3807 81.9493C75.1062 81.9493 75.4345 83.2776 75.4345 83.2776C75.9496 85.3709 76.2983 87.5014 76.4772 89.6493L78.4083 91.1316C79.0073 91.601 79.563 92.1229 80.0689 92.6908H86.0552C86.5031 92.7138 86.9375 92.534 87.2374 92.2014C87.5372 91.8689 87.6705 91.4192 87.6 90.9776C87.4633 88.4679 87.0422 85.9817 86.3448 83.5663C86.0515 82.5671 85.1093 81.8985 84.0662 81.9493H76.3807ZM37.76 81.9493H30.6152L30.2869 82.1611C29.4078 82.6169 28.4384 82.8733 27.4483 82.9118C27.392 83.0207 27.353 83.1376 27.3324 83.2583C26.9917 84.7325 26.7274 86.2231 26.5407 87.7243V87.9361C26.6859 88.5771 26.9991 89.1683 27.4483 89.6493L27.8924 90.1498C28.1122 89.8062 28.3937 89.506 28.7227 89.2643C28.4962 88.9832 28.3376 88.6539 28.2593 88.3018C28.1571 87.7382 28.282 87.1572 28.6069 86.6848L29.7462 85.0486C30.1896 84.4233 30.909 84.0503 31.6772 84.0476C32.0967 84.0422 32.51 84.1485 32.8745 84.3556L33.1641 84.0476C33.8614 83.4882 34.7423 83.207 35.6358 83.2583C36.549 83.263 37.4531 83.4393 38.3007 83.7781L38.7255 83.9898L38.8414 83.2391C38.9499 82.907 38.8804 82.5426 38.6573 82.2734C38.4341 82.0041 38.0883 81.8673 37.7407 81.9108L37.76 81.9493ZM60.9131 83.6048C60.7952 82.6328 59.9642 81.9038 58.9821 81.9108H42.2593C41.2771 81.9038 40.4461 82.6328 40.3283 83.6048L40.1738 85.2603C40.6453 85.8272 40.9997 86.4814 41.2165 87.1853C41.7498 86.975 42.3261 86.8958 42.8965 86.9543C43.4842 86.9623 44.0659 87.0731 44.6152 87.2816C45.3876 87.5511 55.9503 92.0748 57.3793 92.6908H60.0827C60.3396 92.6885 60.5918 92.6223 60.8165 92.4983L60.9324 92.3636C61.104 92.1451 61.2911 91.9392 61.4924 91.7476C61.5934 91.5033 61.6459 91.2418 61.6469 90.9776L60.9131 83.6048ZM71.611 80.4286C73.1752 80.4286 72.4993 78.9463 72.4993 78.9463C71.4482 76.181 70.081 73.5457 68.4248 71.0923C67.9267 70.2614 67.0394 69.7394 66.0689 69.7063H59.7738C58.3255 69.7063 59.04 71.0923 59.04 71.0923C60.0372 73.6595 60.8629 76.2897 61.5117 78.9656C61.7108 79.7777 62.4131 80.3689 63.2496 80.4286H71.611ZM53.8455 102.913C54.0125 103.299 54.1481 103.698 54.251 104.106C54.9367 103.63 55.7521 103.375 56.5876 103.375C56.7034 103.375 57.92 103.375 58.2483 103.471C59.9283 103.606 60.1793 102.624 60.1793 102.624C60.3934 102.059 60.7073 101.538 61.1062 101.084L61.2221 99.8711C59.0168 101.386 56.5168 102.422 53.8841 102.913H53.8455ZM42.2979 105.088H44.8276C44.5572 104.722 44.3255 104.414 44.1903 104.202L43.4952 103.124C42.4331 103.124 41.3324 103.009 40.3669 102.932V103.317C40.4847 104.289 41.3157 105.018 42.2979 105.011V105.088ZM45.8703 117.215H55.5255C56.5088 117.155 57.3678 116.532 57.7269 115.618L59.9283 108.418C58.2143 109.548 56.3112 110.363 54.3089 110.824C53.6739 110.956 53.0266 111.021 52.3779 111.017C50.5811 111.069 48.8618 110.287 47.7241 108.899L45.9669 106.57H42.5683C42.1548 106.551 41.7594 106.74 41.5148 107.073C41.2702 107.406 41.209 107.838 41.3517 108.226L43.6303 115.695C43.9894 116.609 44.8484 117.232 45.8317 117.292L45.8703 117.215ZM43.9007 120.045C43.5945 119.223 42.8448 118.648 41.9696 118.563H36.5048C34.5738 118.563 36.2152 120.103 36.2152 120.103C39.2732 123.782 43.0512 126.802 47.3186 128.977C48.9214 129.67 49.1145 129.651 48.4579 128.631C47.531 127.206 44.9821 122.259 43.9779 120.045H43.9007ZM54.7724 118.524H46.4689C45.5614 118.524 45.1752 119.237 45.5807 120.103C46.6243 122.694 47.8238 125.221 49.1724 127.668C49.8289 128.785 49.9834 128.919 50.6207 128.919C51.2579 128.919 51.4124 128.785 52.0689 127.668C53.4263 125.225 54.626 122.698 55.6607 120.103C56.0662 119.237 55.6607 118.524 54.7724 118.524ZM46.8552 129.612C42.0411 127.405 37.8095 124.11 34.4965 119.987C33.6836 119.081 32.5298 118.551 31.3103 118.524H25.6524C25.6524 118.524 23.5283 118.524 24.7834 119.987C30.0933 125.115 36.8167 128.546 44.0938 129.843C46.0248 130.171 48.9986 130.556 46.9324 129.612H46.8552ZM65.1034 119.987C65.1034 119.987 66.7062 118.428 64.8138 118.447H59.2717C58.3966 118.532 57.6469 119.108 57.3407 119.93C56.3365 122.143 53.7876 127.091 52.8607 128.515C52.2041 129.535 52.3972 129.555 54 128.862C58.2674 126.686 62.0454 123.667 65.1034 119.987ZM86.0552 94.3271H81.5172C82.8629 95.9167 84.0225 97.654 84.9738 99.5053L85.2248 100.064C85.3233 100.295 85.3186 100.557 85.2118 100.785C85.105 101.012 84.9061 101.184 84.6648 101.257L84.0855 101.43C83.4878 101.686 82.944 102.051 82.4827 102.508C81.8441 103.121 80.9938 103.465 80.1076 103.471C79.4377 103.46 78.7785 103.302 78.1765 103.009C77.684 102.938 77.1873 102.899 76.6896 102.893H75.7241C75.7241 103.201 75.589 103.49 75.531 103.779C75.4731 104.068 75.2027 105.107 76.4772 105.107H84.2014C85.25 105.156 86.194 104.478 86.48 103.471C87.1758 101.055 87.5969 98.5691 87.7352 96.0596C87.8057 95.618 87.6724 95.1683 87.3726 94.8357C87.0727 94.5032 86.6383 94.3234 86.1903 94.3463L86.0552 94.3271ZM25.1117 117.292H30.2096C32.3338 117.292 31.3296 115.964 31.3296 115.964C29.5602 113.554 28.191 110.876 27.2745 108.033C27.0566 107.153 26.2524 106.544 25.3434 106.57H18.0055C16.0745 106.57 16.7889 108.36 16.7889 108.36C17.8805 111.185 19.4696 113.793 21.4814 116.06C22.5019 116.89 23.7969 117.309 25.1117 117.235V117.292ZM75.5889 118.524H69.931C68.7153 118.561 67.5691 119.098 66.7641 120.007C63.4511 124.129 59.2196 127.425 54.4055 129.632C52.3393 130.575 55.2938 130.19 57.2441 129.863C64.5212 128.566 71.2446 125.134 76.5545 120.007C77.6552 118.524 75.5889 118.524 75.5889 118.524ZM83.3131 106.532H82C82.1939 106.829 82.2948 107.178 82.2896 107.533C82.2896 109.246 80.3586 109.246 78.8331 109.246C77.0965 109.226 75.3624 109.11 73.6386 108.899C72.761 111.424 71.5114 113.805 69.931 115.964C69.931 115.964 68.9269 117.292 71.051 117.292H76.149C77.4637 117.367 78.7588 116.948 79.7793 116.118C81.791 113.851 83.3802 111.243 84.4717 108.418C84.4717 108.418 85.1862 106.628 83.2552 106.628L83.3131 106.532ZM57.2634 66.9536C57.5696 67.7753 58.3193 68.3507 59.1945 68.4358H64.6593C66.5903 68.4358 64.9489 66.8958 64.9489 66.8958C61.8909 63.2166 58.1129 60.1971 53.8455 58.0216C52.2427 57.3286 52.0496 57.3478 52.7062 58.3681C53.6331 59.7926 56.1821 64.7398 57.1862 66.9536H57.2634ZM24.8607 105.049C26.1352 105.049 25.8069 103.721 25.8069 103.721C25.3332 101.777 24.9977 99.8023 24.8027 97.8113C23.7312 96.9262 23.0402 95.6657 22.8717 94.2886H15.1862C14.7404 94.2727 14.3104 94.4546 14.0122 94.7854C13.714 95.1161 13.5782 95.5616 13.6414 96.0018C13.7797 98.5114 14.2007 100.997 14.8965 103.413C15.1825 104.42 16.1265 105.098 17.1752 105.049H24.8607ZM46.4689 68.4743H54.7724C55.68 68.4743 56.0662 67.7621 55.6607 66.8958C54.63 64.2988 53.4302 61.7716 52.0689 59.3306C51.4124 58.2141 51.2579 58.0793 50.6207 58.0793C49.9834 58.0793 49.8289 58.2141 49.1724 59.3306C47.8198 61.7761 46.6203 64.3027 45.5807 66.8958C45.1752 67.7621 45.5807 68.4743 46.4689 68.4743ZM54.4827 57.3478C59.2968 59.5549 63.5284 62.8504 66.8414 66.9728C67.6246 67.87 68.7396 68.4118 69.931 68.4743H75.6083C75.6083 68.4743 77.7517 68.4743 76.4772 67.0113C71.1722 61.8773 64.4466 58.4445 57.1669 57.1553C55.2358 56.8281 52.2621 56.4431 54.3283 57.3863L54.4827 57.3478ZM36.1572 67.0113C36.1572 67.0113 34.5545 68.5513 36.4469 68.5513H41.9117C42.7868 68.4662 43.5366 67.8908 43.8427 67.0691C44.8469 64.8553 47.3958 59.9081 48.3227 58.4836C48.9793 57.4633 48.7862 57.4441 47.1834 58.1371C42.916 60.3126 39.138 63.3321 36.08 67.0113H36.1572ZM15.1862 92.6716H22.5821C22.4889 91.7013 22.1716 90.7657 21.6552 89.9381C20.6317 88.0131 20.6317 86.9543 20.0524 86.0881L19.7241 85.3566C19.2712 84.3728 19.2712 83.2411 19.7241 82.2573V81.9493H17.1752C16.1265 81.9008 15.1825 82.5787 14.8965 83.5856C14.1991 86.0009 13.778 88.4871 13.6414 90.9968C13.5782 91.4371 13.714 91.8826 14.0122 92.2133C14.3104 92.544 14.7404 92.726 15.1862 92.7101V92.6716ZM25.6524 68.4743H31.3103C32.526 68.4375 33.6723 67.901 34.4772 66.9921C37.7902 62.8697 42.0218 59.5741 46.8358 57.3671C48.9021 56.4238 45.9476 56.8088 43.9972 57.1361C36.7175 58.4253 29.9919 61.8581 24.6869 66.9921C23.5862 68.4743 25.6524 68.4743 25.6524 68.4743ZM17.9283 80.4671H20.5738V80.2553C20.666 79.5923 20.8479 78.9447 21.1145 78.3303L20.96 77.8491C20.5571 76.4105 20.9297 74.8666 21.9448 73.7681C22.7089 72.8761 23.8392 72.3801 25.0152 72.4206C25.9227 72.4206 26.9462 72.9981 27.931 72.9403C28.0871 72.9453 28.2414 72.9052 28.3752 72.8248C28.9586 72.0657 29.8337 71.5842 30.7889 71.4966H30.9048L31.3103 71.0346C31.3103 71.0346 32.3145 69.7063 30.1903 69.7063H25.1117C23.7969 69.632 22.5019 70.0509 21.4814 70.8806C19.4696 73.1481 17.8805 75.7558 16.7889 78.5806C16.7889 78.5806 16.0745 80.3708 18.0055 80.3708L17.9283 80.4671Z" fill="#0072D3"/>
<path d="M20.9021 84.6641C20.6076 84.056 20.6076 83.3472 20.9021 82.7391C21.3462 81.6804 21.829 81.6226 22.0414 80.4099C22.1293 78.6939 23.4096 77.2731 25.1117 77.0026C27.4483 76.5791 29.2055 80.0249 31.3103 77.8304C31.4488 79.1175 30.7279 80.3439 29.5338 80.8526C28.1829 81.6198 26.5441 81.6914 25.131 81.0451C24.4938 80.7949 23.3352 79.7939 22.949 81.0451C22.5628 82.2964 24.88 81.8729 24.4552 83.9711C23.2596 83.229 21.6954 83.5027 20.8248 84.6064L20.9021 84.6641ZM28.4331 76.4444C29.0626 75.9882 29.5456 75.3596 29.8234 74.6349C30.4028 73.3259 31.291 73.2874 31.291 73.2874C30.9241 72.5559 30.1324 73.0179 29.36 73.7879C28.5876 74.5579 27.1779 74.2499 26.5793 74.2499C25.3986 73.7403 24.0274 73.9744 23.0841 74.8466C22.4078 75.5609 22.139 76.5674 22.3696 77.5224C24.064 76.0543 26.4568 75.6942 28.5103 76.5984L28.4331 76.4444ZM32.72 76.7524C33.589 76.0401 34.651 76.8486 35.2496 75.2894C35.506 74.7604 35.506 74.1436 35.2496 73.6146C34.3421 74.9814 33.7241 74.8851 32.3531 74.7119C30.9821 74.5386 30.8662 75.1354 30.2096 76.0209C29.9226 76.4766 29.5324 76.859 29.0703 77.1374C29.8428 77.8304 31.8317 77.4454 32.72 76.7524ZM22.64 84.6834C21.8873 85.1453 21.5453 86.0577 21.8098 86.8985C22.0742 87.7393 22.8775 88.2937 23.76 88.2446C24.6779 87.8937 25.1487 86.8782 24.8221 85.9539C24.5672 85.0056 23.5938 84.4388 22.64 84.6834ZM24.1655 93.9619C24.3366 95.6453 25.5903 97.0201 27.2552 97.3499C28.5683 97.4654 29.3021 96.8494 29.1862 95.1939C29.0703 93.5384 27.2552 91.7674 26.2703 90.5354C25.6648 89.8629 25.2572 89.0369 25.0924 88.1484C24.5539 88.9669 23.5045 89.2832 22.6014 88.8991C23.6183 90.3746 24.139 92.1339 24.0883 93.9234L24.1655 93.9619ZM30.48 90.0734C29.8005 90.0734 29.1879 90.4814 28.9279 91.1072C28.6678 91.733 28.8116 92.4534 29.2921 92.9323C29.7725 93.4113 30.4951 93.5546 31.1229 93.2954C31.7507 93.0362 32.16 92.4255 32.16 91.7481C32.16 90.8232 31.4078 90.0734 30.48 90.0734ZM34.7669 90.6701L35.7517 88.9761C36.0117 88.5269 35.8764 87.9536 35.4428 87.6671L32.1407 85.6074C31.7414 85.3718 31.2306 85.4527 30.9241 85.7999L29.8041 87.4169C29.6933 87.569 29.6493 87.7594 29.682 87.9445C29.7148 88.1296 29.8216 88.2935 29.9779 88.3986L33.84 90.8626C34.0066 90.9735 34.2124 91.0096 34.407 90.962C34.6016 90.9144 34.7672 90.7876 34.8634 90.6124L34.7669 90.6701ZM32.6621 93.2689C32.4127 93.5031 32.0946 93.6515 31.7545 93.6924C34.2262 94.5201 32.8552 93.6924 35.1724 93.5384C37.3327 93.7614 39.3239 92.3529 39.8262 90.2466C40.6057 88.2712 39.775 86.0271 37.8952 85.0299C36.7593 84.4601 35.42 84.4601 34.2841 85.0299C34.1072 85.1354 34.0092 85.335 34.0343 85.5391C34.0594 85.7431 34.2027 85.9133 34.4 85.9731C34.4 85.9731 35.7131 86.8009 36.5241 87.4169C36.9976 87.7317 37.1833 88.3353 36.9683 88.8606C36.9683 88.8606 36.0221 90.5546 35.4621 91.3439C34.9021 92.1331 33.531 91.9406 33.531 91.9406L32.6621 93.2689ZM32.6621 99.2749C36.1379 100.006 37.2 101.2 40.3862 101.489C43.5724 101.777 48.3421 101.816 48.3421 101.816C48.1822 100.539 48.0984 99.253 48.091 97.9659C44.5959 97.3884 43.2634 97.1959 42.1434 95.8291C41.0234 94.4624 42.3752 92.4604 42.3752 92.4604C41.8276 91.9236 41.096 91.614 40.3283 91.5941C39.308 93.2812 37.4954 94.3334 35.52 94.3854C35.0006 94.2414 34.4434 94.364 34.0331 94.7126C33.5503 95.0591 32.9903 94.9821 31.6772 94.4624C30.3641 93.9426 30.2676 94.7896 30.2676 94.7896C30.0938 97.6771 29.36 97.4269 29.0124 97.7734C28.6648 98.1199 29.2441 98.5241 32.6041 99.2171L32.6621 99.2749ZM52.3779 93.8849C53.7022 94.9092 55.4247 95.2711 57.051 94.8666C57.1821 94.7007 57.2189 94.4795 57.1484 94.2803C57.0779 94.0812 56.91 93.932 56.7034 93.8849C56.7034 93.8849 44.731 88.7644 43.9779 88.4949C43.1104 88.0795 42.0805 88.1994 41.3324 88.8029C40.8552 89.3236 40.6358 90.0293 40.7338 90.7279C42.7614 91.0936 43.2441 92.0946 43.2441 92.0946C46.3981 91.8777 49.5526 92.5093 52.3779 93.9234V93.8849ZM48.96 97.3499C48.96 97.9081 49.2496 102.798 49.2496 102.798C49.8608 103.195 50.6149 103.307 51.3159 103.106C52.0766 100.612 52.4287 98.0115 52.3586 95.4056C52.011 94.4046 51.4896 94.1929 48.8055 93.5961C47.1471 93.1391 45.4259 92.9506 43.7076 93.0379C42.9507 93.3493 42.551 94.1794 42.7807 94.9629C43.0124 96.0024 44.48 96.5029 44.48 96.5029C45.9523 96.914 47.4484 97.2355 48.96 97.4654V97.3499ZM50.6207 106.513C51.0365 106.482 51.4073 106.24 51.6031 105.873C51.799 105.506 51.7926 105.065 51.5862 104.703C51.167 103.991 50.3134 103.657 49.52 103.895C48.8828 104.087 48.7476 104.896 48.7476 104.896C48.3807 106.263 49.7131 106.628 50.6786 106.513H50.6207ZM53.4593 95.5981C53.4088 97.6363 53.1039 99.6603 52.5517 101.623C55.7788 101.261 58.8342 99.9849 61.3572 97.9466C65.7793 94.4816 66.5324 93.9619 68.1738 93.3651C69.2741 92.945 70.4607 92.7996 71.6303 92.9416C72.4028 92.9416 73.0786 93.3651 73.4069 92.7876C73.7352 92.2101 71.7076 90.5161 70.491 90.1504C69.2745 89.7846 68.9462 89.9579 68.7145 90.4391C67.945 91.1706 66.8962 91.5355 65.8372 91.4401C64.3436 91.4195 62.9219 92.0785 61.9752 93.2304C59.7201 95.5124 56.4118 96.4159 53.3048 95.5981H53.4593ZM74.5462 92.5566C74.7972 93.3459 73.5807 93.7501 73.5807 93.7501C76.4772 96.2719 76.7669 101.45 76.7669 101.45C77.4149 101.439 78.0623 101.497 78.6979 101.623C79.5582 102.246 80.7402 102.173 81.5172 101.45C82.126 100.843 82.8564 100.371 83.6607 100.064C82.0979 97.1568 80.0693 94.5234 77.6552 92.2679C76.1296 91.1514 74.0248 89.4381 73.349 88.9376C72.6731 88.4371 72.1517 87.8019 71.1862 87.9751C70.6366 88.0546 70.1721 88.4221 69.9697 88.9376C71.8677 89.6196 73.4979 90.8874 74.6234 92.5566H74.5462ZM48.6896 107.822C49.9155 109.471 52.0707 110.141 54.0193 109.477C57.6883 108.727 60.1986 106.109 61.4924 106.166C62.5547 106.149 63.6111 106.007 64.64 105.743C63.771 103.818 60.7779 103.645 60.7779 103.645C60.1021 104.684 58.8469 104.761 56.7034 104.646C55.6086 104.464 54.5136 104.968 53.9421 105.916C53.9421 105.916 53.2855 105.916 53.0345 104.761C52.9246 104.157 52.5944 103.616 52.1076 103.24C51.913 103.36 51.7801 103.559 51.7431 103.784C51.7061 104.009 51.7686 104.239 51.9145 104.415C52.2729 104.959 52.331 105.647 52.069 106.243C51.7269 106.761 51.1906 107.12 50.5805 107.239C49.9705 107.359 49.3378 107.229 48.8248 106.879C47.1255 105.839 48.3228 103.356 48.3228 103.356H45.3876C45.3876 103.356 48.2841 107.36 48.6896 107.803V107.822ZM65.5669 105.627C70.6455 107.783 80.7834 108.188 80.7834 107.552C80.7834 106.917 80.1655 107.09 80.1655 107.09C70.9931 106.744 67.6717 104.395 66.0883 103.125C65.0344 102.317 63.8145 101.752 62.5159 101.469C61.6276 101.585 61.2607 102.682 61.2607 102.682C63.1055 102.869 64.7281 103.979 65.5669 105.627Z" fill="#F23D4E"/>
<path d="M154.491 69.707L170.828 117.274H125.332L134.524 88.8608H146.439L140.897 105.974H154.897L142.654 69.707H154.491ZM195.197 69.707H173.956V81.0068H188.806C193.262 81.0446 197.36 83.4498 199.556 87.3162C201.751 91.1827 201.711 95.9231 199.449 99.7517C197.188 103.58 193.05 105.916 188.593 105.878H185.291V88.8608H173.956V117.274H195.197C206.108 116.292 213.967 105.146 213.967 93.5385C213.967 81.9308 205.277 70.6888 195.197 69.707ZM131.724 84.7028C131.51 76.4887 124.864 69.8891 116.623 69.707H98.8965V81.0068H115.04C117.071 81.038 118.708 82.6776 118.728 84.7028C118.744 86.8878 117.053 88.7084 114.866 88.8608H98.8965V117.274H110.232V99.9488H116.623C124.904 99.6839 131.525 92.9988 131.686 84.7413L131.724 84.7028ZM228.121 69.7455H216.786V117.274H228.121V69.7455Z" fill="black"/>
<path fill-rule="evenodd" clip-rule="evenodd" d="M230.346 72.1776C230.346 70.9591 231.342 70.0293 232.53 70.0293C233.712 70.0293 234.702 70.9591 234.702 72.1776C234.702 73.4192 233.712 74.349 232.53 74.349C231.342 74.349 230.346 73.4192 230.346 72.1776ZM230.74 72.1776C230.74 73.2344 231.516 74.0314 232.53 74.0314C233.532 74.0314 234.308 73.2344 234.308 72.1776C234.308 71.1439 233.532 70.3469 232.53 70.3469C231.516 70.3469 230.74 71.1439 230.74 72.1776ZM231.684 73.4481V70.9244H232.663C233.266 70.9244 233.55 71.1612 233.55 71.6463C233.55 72.1025 233.26 72.2931 232.883 72.3335L233.607 73.4481H233.185L232.495 72.3624H232.078V73.4481H231.684ZM232.078 71.242V72.0448H232.489C232.837 72.0448 233.156 72.0274 233.156 71.629C233.156 71.294 232.866 71.242 232.599 71.242H232.078Z" fill="black"/>
</svg>
